<svg width="33" height="36" viewBox="0 0 33 36" fill="none" xmlns="http://www.w3.org/2000/svg">
<g id="gps" clip-path="url(#clip0_135_74)">
<path id="Vector" d="M27.8675 10.6525L27.8675 10.6525L27.8651 10.645C27.8067 10.4656 27.7346 10.2741 27.6674 10.0954L27.6652 10.0896C27.5956 9.90432 27.531 9.73243 27.4801 9.5763L27.4693 9.54305L27.4539 9.51163C27.4399 9.48295 27.4276 9.45775 27.4163 9.43391C27.4075 9.41532 27.4004 9.39976 27.3947 9.38675V9.34812L27.3549 9.25437C25.0612 3.85888 20.1781 1.86249 16.3347 1.86249C11.2252 1.86249 5.36134 5.33602 4.61716 12.8885L4.61475 12.9129V12.9375V14.3437L4.61474 14.3471C4.61468 14.4076 4.61412 14.986 4.67557 15.3214C5.02575 18.0857 6.73885 20.9302 8.36919 23.5981C8.56434 23.9399 8.77249 24.2805 8.97608 24.6136L8.97811 24.617C9.18506 24.9556 9.38731 25.2866 9.57543 25.6165L9.57571 25.617C10.6939 27.5722 11.8624 29.5083 13.0126 31.4143C13.6184 32.4182 14.2192 33.4137 14.8049 34.3992L14.8049 34.3992L14.809 34.4059L15.7347 35.9095C15.8131 36.0546 15.9321 36.1618 16.0325 36.2303C16.1325 36.2985 16.301 36.3875 16.4997 36.3875C16.6333 36.3875 16.8092 36.3657 16.9753 36.2596C17.1309 36.1601 17.2278 36.0191 17.2853 35.8728C17.4386 35.6023 17.593 35.3334 17.7473 35.0647C18.1865 34.2999 18.6243 33.5374 19.0304 32.7489C19.6896 31.569 20.3442 30.3978 21.0525 29.2276L21.057 29.2202L21.0612 29.2126C21.1118 29.122 21.1658 29.0292 21.2211 28.9341C21.3778 28.6647 21.5451 28.3769 21.677 28.0698C21.7055 28.0221 21.7371 27.9713 21.7704 27.9177C21.8844 27.7344 22.0182 27.5193 22.1148 27.2891C22.2149 27.1357 22.3142 26.9855 22.4579 26.7894L22.9529 26.1144L22.973 26.0871L22.9891 26.0574C23.4138 25.2756 23.9039 24.4615 24.3892 23.6554C24.5243 23.431 24.6591 23.2072 24.7919 22.9848L24.8538 22.8848C25.6827 21.5452 26.5387 20.1615 27.1901 18.759C27.8592 17.3184 28.3297 15.8228 28.3297 14.2875V12.8135C28.3479 12.6892 28.3392 12.5621 28.3273 12.4591C28.3115 12.322 28.2814 12.1634 28.2415 11.9892C28.1616 11.6402 28.0335 11.19 27.8675 10.6525ZM16.3882 33.7007L16.2732 33.5007L16.2732 33.5007L16.2696 33.4945C15.6765 32.4966 15.0721 31.4952 14.4647 30.4888C13.3187 28.5898 12.1617 26.6728 11.0488 24.7268L11.0458 24.7215C10.6638 24.0519 10.2737 23.3679 9.82708 22.6823C8.22635 20.0853 6.7064 17.4916 6.38442 15.1513C6.38208 15.0158 6.3677 14.8322 6.35545 14.6881C6.35079 14.6333 6.34603 14.5797 6.34191 14.5334C6.3399 14.5108 6.33805 14.49 6.33643 14.4715C6.33389 14.4424 6.33231 14.423 6.33133 14.4109C6.32982 14.3923 6.32975 14.3914 6.32975 14.4V13.0787C7.07769 6.63949 12.0443 3.76249 16.3347 3.76249C19.5896 3.76249 23.7205 5.42416 25.607 10.0331L25.6133 10.0485L25.6206 10.0633L25.7709 10.3708C25.8218 10.5211 25.8816 10.6623 25.9309 10.7785C25.9408 10.8019 25.9503 10.8243 25.9592 10.8456C26.0113 10.9699 26.0454 11.0597 26.0647 11.136V11.1375V11.2207L26.0917 11.2994C26.2817 11.8548 26.4019 12.2514 26.4738 12.5189C26.5098 12.6528 26.5328 12.751 26.5464 12.8185C26.5563 12.8676 26.5591 12.89 26.5597 12.8938V14.4C26.5597 15.5883 26.1669 16.8469 25.5487 18.1596C24.9315 19.47 24.1101 20.7936 23.2832 22.1186C22.6204 23.1355 21.9508 24.2192 21.3902 25.3087L21.3718 25.3444L21.3594 25.3825C21.3599 25.3808 21.3495 25.4089 21.2959 25.4748C21.2441 25.5383 21.1783 25.6061 21.0922 25.6942L21.0675 25.7195L21.0465 25.7481L20.5515 26.4231C20.444 26.5697 20.3602 26.7266 20.2902 26.8626C20.2738 26.8945 20.2581 26.9251 20.243 26.9549C20.189 27.0609 20.1407 27.1557 20.0835 27.2532L20.0834 27.2532L20.0783 27.2624C19.9728 27.4511 19.8668 27.6273 19.7563 27.811L19.7546 27.8139C19.6456 27.9949 19.5322 28.1835 19.4183 28.3874C18.7576 29.5698 18.1018 30.7435 17.392 31.9161L17.392 31.9161L17.3885 31.922C17.1379 32.3491 16.9017 32.7755 16.6688 33.1957L16.6674 33.1983C16.5741 33.3666 16.4814 33.534 16.3882 33.7007Z" fill="#383838" stroke="#383838"/>
<path id="Vector_2" d="M12.0276 15.4337L12.0272 15.4338L12.0321 15.4465C13.1309 18.2853 15.4618 18.5875 16.3903 18.5875C19.0608 18.5875 21.2038 16.3925 21.2053 13.7277C21.2618 11.0598 19.1718 8.91876 16.5553 8.91876C15.4049 8.91876 14.2459 9.28596 13.37 10.0175C12.4888 10.7535 11.9053 11.8501 11.9053 13.275V14.175C11.9053 14.1816 11.9053 14.1883 11.9053 14.1951C11.9052 14.521 11.9051 15.058 12.0276 15.4337ZM13.2829 14.2096L13.2853 14.1924V14.175V13.275C13.2853 12.2255 13.7048 11.4823 14.3181 10.9959C14.9389 10.5035 15.7744 10.2625 16.6103 10.2625C18.4984 10.2625 19.9886 11.7723 19.9903 13.7779C19.9371 15.668 18.3417 17.2438 16.4453 17.2438C16.112 17.2438 15.5376 17.191 14.9464 16.8789C14.3621 16.5705 13.7443 16.0001 13.3258 14.9347C13.2821 14.7978 13.2343 14.557 13.2829 14.2096Z" fill="#383838" stroke="#383838" stroke-width="0.5"/>
</g>
<defs>
<clipPath id="clip0_135_74">
<rect width="33" height="36" fill="white"/>
</clipPath>
</defs>
</svg>
