<svg width="40" height="35" viewBox="0 0 40 35" fill="none" xmlns="http://www.w3.org/2000/svg">
<path id="Vector" d="M8.3871 0C7.36045 0 6.37586 0.395015 5.64991 1.09815C4.92396 1.80128 4.51613 2.75493 4.51613 3.74931C4.51613 4.74368 4.92396 5.69733 5.64991 6.40047C6.37586 7.1036 7.36045 7.49861 8.3871 7.49861C9.41374 7.49861 10.3983 7.1036 11.1243 6.40047C11.8502 5.69733 12.2581 4.74368 12.2581 3.74931C12.2581 2.75493 11.8502 1.80128 11.1243 1.09815C10.3983 0.395015 9.41374 0 8.3871 0ZM30.3626 4.99907C30.2361 4.99219 30.1103 5.0213 30.0007 5.08281C29.8911 5.14433 29.8025 5.23556 29.7458 5.34526L25.8748 12.8414C25.7978 12.9895 25.7848 13.1613 25.8385 13.3188C25.8922 13.4763 26.0083 13.6066 26.1613 13.6812C26.3143 13.7558 26.4916 13.7685 26.6542 13.7164C26.8168 13.6644 26.9514 13.5519 27.0284 13.4038L28.3871 10.7693V14.9972H27.7419C27.5708 14.9972 27.4067 15.0631 27.2857 15.1802C27.1647 15.2974 27.0968 15.4564 27.0968 15.6221C27.0968 15.7878 27.1647 15.9468 27.2857 16.064C27.4067 16.1812 27.5708 16.247 27.7419 16.247H30.3226C30.4937 16.247 30.6578 16.1812 30.7788 16.064C30.8998 15.9468 30.9677 15.7878 30.9677 15.6221C30.9677 15.4564 30.8998 15.2974 30.7788 15.1802C30.6578 15.0631 30.4937 14.9972 30.3226 14.9972H29.6774V8.30596C29.6774 8.29721 29.6723 8.29097 29.6723 8.28222L30.8994 5.90266C30.9475 5.81036 30.9711 5.70794 30.9682 5.60459C30.9653 5.50124 30.9359 5.40021 30.8827 5.3106C30.8294 5.22099 30.754 5.1456 30.6632 5.09122C30.5725 5.03684 30.4691 5.00518 30.3626 4.99907ZM7.74194 8.33846C6.71529 8.33846 5.7307 8.73347 5.00475 9.4366C4.2788 10.1397 3.87097 11.0934 3.87097 12.0878V21.2461C3.87097 22.2404 4.2788 23.1941 5.00475 23.8972C5.7307 24.6004 6.71529 24.9954 7.74194 24.9954H14.1935V33.1189C14.1935 33.6161 14.3975 34.0929 14.7604 34.4444C15.1234 34.796 15.6157 34.9935 16.129 34.9935C16.6424 34.9935 17.1347 34.796 17.4976 34.4444C17.8606 34.0929 18.0645 33.6161 18.0645 33.1189V23.1207C18.0645 22.6235 17.8606 22.1467 17.4976 21.7951C17.1347 21.4436 16.6424 21.2461 16.129 21.2461H11.6129V14.6973L13.8503 15.9845C14.1497 16.1558 14.4903 16.247 14.8387 16.247H20C20.2955 16.247 20.5716 16.1783 20.8219 16.0645C20.9381 16.177 21.1019 16.247 21.28 16.247H23.871C24.0421 16.247 24.2062 16.1812 24.3272 16.064C24.4482 15.9468 24.5161 15.7878 24.5161 15.6221C24.5161 15.4564 24.4482 15.2974 24.3272 15.1802C24.2062 15.0631 24.0421 14.9972 23.871 14.9972H21.8168C21.889 14.801 21.9355 14.5923 21.9355 14.3723C21.9355 13.8752 21.7316 13.3983 21.3686 13.0468C21.0056 12.6952 20.5133 12.4977 20 12.4977H15.3703L10.8942 9.92316C10.5383 9.43361 10.0662 9.03403 9.51765 8.75804C8.96908 8.48205 8.36009 8.33897 7.74194 8.33846ZM1.2929 14.9872C0.950688 14.9872 0.62249 15.1189 0.380507 15.3533C0.138525 15.5877 0.00258061 15.9055 0.00258061 16.237L0 27.4949C0.000206422 27.7402 0.0749496 27.9801 0.214914 28.1845C0.354878 28.389 0.553873 28.549 0.787097 28.6447L0.788387 28.6472C0.943226 28.7097 1.11097 28.7447 1.29032 28.7447H5.16129V32.1016L2.8129 33.8662C2.74208 33.9151 2.68219 33.9774 2.63683 34.0492C2.59148 34.1211 2.5616 34.2011 2.54898 34.2845C2.53637 34.3678 2.54128 34.4528 2.56343 34.5342C2.58557 34.6157 2.62449 34.692 2.67785 34.7585C2.73121 34.825 2.7979 34.8804 2.87392 34.9213C2.94994 34.9622 3.03372 34.9879 3.12022 34.9966C3.20671 35.0054 3.29415 34.9971 3.37726 34.9723C3.46038 34.9475 3.53746 34.9067 3.60387 34.8523L5.16129 33.6813V34.3574C5.16129 34.5231 5.22926 34.6821 5.35025 34.7992C5.47124 34.9164 5.63534 34.9823 5.80645 34.9823C5.97756 34.9823 6.14166 34.9164 6.26265 34.7992C6.38364 34.6821 6.45161 34.5231 6.45161 34.3574V33.7075L7.97419 34.851C8.10942 34.9515 8.28005 34.9962 8.44912 34.9757C8.61818 34.9551 8.77207 34.8708 8.87742 34.7411C8.98231 34.6104 9.0294 34.4448 9.00835 34.2805C8.9873 34.1163 8.89984 33.9668 8.76516 33.865L6.45161 32.1278V28.7447H10.3045C10.6467 28.7447 10.9749 28.613 11.2169 28.3786C11.4589 28.1443 11.5948 27.8264 11.5948 27.4949C11.5948 27.1635 11.4589 26.8456 11.2169 26.6112C10.9749 26.3768 10.6467 26.2451 10.3045 26.2451H2.58065L2.58323 16.237C2.58323 15.9055 2.44728 15.5877 2.2053 15.3533C1.96332 15.1189 1.63512 14.9872 1.2929 14.9872ZM16.7742 17.4968C16.432 17.4968 16.1038 17.6284 15.8618 17.8628C15.6198 18.0972 15.4839 18.4151 15.4839 18.7465C15.4839 19.078 15.6198 19.3959 15.8618 19.6302C16.1038 19.8646 16.432 19.9963 16.7742 19.9963H19.3548V33.7438C19.3548 34.0752 19.4908 34.3931 19.7328 34.6275C19.9747 34.8619 20.3029 34.9935 20.6452 34.9935C20.9874 34.9935 21.3156 34.8619 21.5576 34.6275C21.7995 34.3931 21.9355 34.0752 21.9355 33.7438V19.9963H33.5484V33.7438C33.5484 34.0752 33.6843 34.3931 33.9263 34.6275C34.1683 34.8619 34.4965 34.9935 34.8387 34.9935C35.1809 34.9935 35.5091 34.8619 35.7511 34.6275C35.9931 34.3931 36.129 34.0752 36.129 33.7438V19.9963H38.7097C39.0519 19.9963 39.3801 19.8646 39.6221 19.6302C39.8641 19.3959 40 19.078 40 18.7465C40 18.4151 39.8641 18.0972 39.6221 17.8628C39.3801 17.6284 39.0519 17.4968 38.7097 17.4968H16.7742Z" fill="#383838"/>
</svg>
