<svg width="21" height="35" viewBox="0 0 21 35" fill="none" xmlns="http://www.w3.org/2000/svg">
<path d="M2.45205 1.64062H18.5145C19.4676 1.64062 20.2348 2.37344 20.2348 3.28125V30.625C20.2348 31.535 19.4676 32.2656 18.5145 32.2656H2.45205C1.49764 32.2656 0.730469 31.5361 0.730469 30.625V3.28125C0.730469 2.37344 1.49764 1.64062 2.45205 1.64062Z" fill="white"/>
<path d="M2.45099 1.09375C1.10389 1.09375 0.0805664 2.11422 0.0805664 3.28125V30.625C0.0805664 31.7931 1.10388 32.8125 2.45228 32.8125H18.5147C19.8644 32.8125 20.8852 31.7931 20.8852 30.625V3.28125C20.8852 2.11422 19.8644 1.09375 18.5147 1.09375H2.45099ZM2.45099 2.1875H18.5147C19.0738 2.1875 19.5849 2.63156 19.5849 3.28125V30.625C19.5849 31.2758 19.0725 31.7188 18.5147 31.7188H2.45228C1.89315 31.7188 1.38085 31.2758 1.38085 30.625V3.28125C1.38085 2.63156 1.89316 2.1875 2.45099 2.1875Z" fill="#383838"/>
<path fill-rule="evenodd" clip-rule="evenodd" d="M0.0805664 12.0312V13.125H20.8852V12.0312H0.0805664Z" fill="#383838"/>
<path d="M3.3313 31.7188C3.15887 31.7188 2.99349 31.7764 2.87156 31.879C2.74964 31.9815 2.68115 32.1206 2.68115 32.2656V33.3594C2.68115 33.5044 2.74964 33.6436 2.87156 33.7462C2.99349 33.8487 3.15887 33.9062 3.3313 33.9062H17.6345C17.8069 33.9062 17.9722 33.8487 18.0942 33.7462C18.2161 33.6436 18.2846 33.5044 18.2846 33.3594V32.2656C18.2846 32.1206 18.2161 31.9815 18.0942 31.879C17.9722 31.7764 17.8069 31.7188 17.6345 31.7188H3.3313Z" fill="#383838"/>
<path fill-rule="evenodd" clip-rule="evenodd" d="M16.3433 3.28125C16.1708 3.28125 16.0055 3.33891 15.8835 3.44147C15.7616 3.54403 15.6931 3.68308 15.6931 3.82812C15.6931 3.97317 15.7616 4.11236 15.8835 4.21492C16.0055 4.31748 16.1708 4.375 16.3433 4.375H17.6435C17.816 4.375 17.9813 4.31748 18.1033 4.21492C18.2252 4.11236 18.2937 3.97317 18.2937 3.82812C18.2937 3.68308 18.2252 3.54403 18.1033 3.44147C17.9813 3.33891 17.816 3.28125 17.6435 3.28125H16.3433ZM3.32088 4.375C3.10749 4.37528 2.89417 4.38077 2.68115 4.39142V9.85256C2.68115 9.85256 3.00362 9.86351 3.3313 9.86351C3.66027 9.86351 3.98794 9.67751 3.98144 9.30782V4.93282C3.98232 4.85981 3.9658 4.78743 3.93287 4.71987C3.89994 4.6523 3.85124 4.59097 3.78968 4.53949C3.72811 4.48801 3.65492 4.44743 3.57441 4.42013C3.49389 4.39283 3.40768 4.3793 3.32088 4.38047V4.375ZM3.32088 16.4062C3.10749 16.4065 2.89417 16.412 2.68115 16.4227V21.8838C2.68115 21.8838 3.00362 21.8948 3.3313 21.8948C3.66027 21.8948 3.98794 21.7088 3.98144 21.3391V16.9641C3.98232 16.8911 3.9658 16.8187 3.93287 16.7511C3.89994 16.6836 3.85124 16.6222 3.78968 16.5707C3.72811 16.5193 3.65492 16.4787 3.57441 16.4514C3.49389 16.4241 3.40768 16.4106 3.32088 16.4117V16.4062Z" fill="#383838"/>
<path d="M3.3313 31.7188C3.15887 31.7188 2.99349 31.7764 2.87156 31.879C2.74964 31.9815 2.68115 32.1206 2.68115 32.2656V33.3594C2.68115 33.5044 2.74964 33.6436 2.87156 33.7462C2.99349 33.8487 3.15887 33.9062 3.3313 33.9062H17.6345C17.8069 33.9062 17.9722 33.8487 18.0942 33.7462C18.2161 33.6436 18.2846 33.5044 18.2846 33.3594V32.2656C18.2846 32.1206 18.2161 31.9815 18.0942 31.879C17.9722 31.7764 17.8069 31.7188 17.6345 31.7188H3.3313Z" fill="#383838"/>
<path fill-rule="evenodd" clip-rule="evenodd" d="M16.343 3.28125C16.1706 3.28125 16.0052 3.33891 15.8833 3.44147C15.7614 3.54403 15.6929 3.68308 15.6929 3.82812C15.6929 3.97317 15.7614 4.11236 15.8833 4.21492C16.0052 4.31748 16.1706 4.375 16.343 4.375H17.6433C17.8157 4.375 17.9811 4.31748 18.103 4.21492C18.225 4.11236 18.2934 3.97317 18.2934 3.82812C18.2934 3.68308 18.225 3.54403 18.103 3.44147C17.9811 3.33891 17.8157 3.28125 17.6433 3.28125H16.343Z" fill="#383838"/>
</svg>
