<svg width="38" height="38" viewBox="0 0 38 38" fill="none" xmlns="http://www.w3.org/2000/svg">
<path d="M37.9707 15.2163C38.1606 14.2206 37.4012 13.0258 36.4519 13.0258L25.6302 11.4326L20.694 1.07726C20.5042 0.678981 20.3143 0.479839 19.9346 0.280698C18.9854 -0.316727 17.8462 0.0815565 17.2767 1.07726L12.5303 11.4326L1.70868 13.0258C1.13912 13.0258 0.759414 13.2249 0.569561 13.6232C-0.189854 14.4197 -0.189854 15.6146 0.569561 16.4112L8.35356 24.3768L6.45502 35.7279C6.45502 36.1262 6.45502 36.5245 6.64487 36.9227C7.21444 37.9184 8.35356 38.3167 9.30282 37.7193L18.9854 32.3425L28.6679 37.7193C28.8577 37.9184 29.2374 37.9184 29.6172 37.9184C29.807 37.9184 29.807 37.9184 29.9969 37.9184C30.9461 37.7193 31.7055 36.7236 31.5157 35.5287L29.6172 24.1777L37.4012 16.212C37.7809 16.0129 37.9707 15.6146 37.9707 15.2163Z" fill="#212121"/>
</svg>
