<svg width="176" height="176" viewBox="0 0 176 176" fill="none" xmlns="http://www.w3.org/2000/svg">
<g id="icon-thank-you 1" clip-path="url(#clip0_685_570)">
<g id="Group">
<path id="Vector" d="M88 176C136.601 176 176 136.601 176 88C176 39.3989 136.601 0 88 0C39.3989 0 0 39.3989 0 88C0 136.601 39.3989 176 88 176Z" fill="#F61F4B"/>
<path id="Vector_2" d="M106.621 174.167C108.311 173.837 109.987 173.461 111.655 173.034C114.482 172.246 117.267 171.316 120.001 170.249C122.741 169.189 125.427 167.992 128.047 166.663C138.551 161.312 147.875 153.907 155.465 144.888C163.063 135.871 168.774 125.421 172.26 114.158C173.004 111.701 173.64 109.21 174.168 106.698L121.823 54.3356C117.402 49.8923 112.146 46.3675 106.357 43.9643C100.568 41.561 94.3607 40.3268 88.0927 40.3326C81.8208 40.3268 75.6096 41.561 69.8163 43.9641C64.0231 46.3673 58.7621 49.892 54.3359 54.3356C35.6667 73.0114 35.6667 103.187 54.3359 121.862L106.621 174.167Z" fill="#D80F38"/>
<path id="Vector_3" d="M88.0069 40.3326C94.2649 40.3267 100.462 41.5581 106.243 43.956C112.023 46.3539 117.273 49.8709 121.689 54.3048C140.325 72.941 140.325 103.052 121.689 121.691C103.055 140.325 72.9457 140.325 54.3095 121.691C35.6755 103.052 35.6755 72.941 54.3095 54.3048C58.7288 49.8708 63.9809 46.354 69.7639 43.9566C75.5469 41.5591 81.7467 40.3261 88.0069 40.3326ZM109.71 73.3326C109.015 73.3942 108.341 73.6626 107.791 74.0894L81.0219 94.1754L68.6117 81.763C65.9189 78.958 60.6257 84.2534 63.4285 86.9462L78.0871 101.605C79.3191 102.837 81.4729 102.991 82.8677 101.948L112.185 79.959C114.653 78.1638 113.131 73.3744 110.082 73.3304C109.957 73.324 109.832 73.324 109.708 73.3304L109.71 73.3326Z" fill="white"/>
</g>
</g>
<defs>
<clipPath id="clip0_685_570">
<rect width="176" height="176" fill="white"/>
</clipPath>
</defs>
</svg>
