<svg width="81" height="81" viewBox="0 0 81 81" fill="none" xmlns="http://www.w3.org/2000/svg">
<rect width="80.2152" height="80.024" rx="10.7151" fill="#F61F4B"/>
<path d="M61.3285 34.168L55.2797 31.5898V17.8431C55.2797 17.452 55.1339 17.077 54.8744 16.8004C54.615 16.5239 54.263 16.3686 53.896 16.3686H26.2225C25.8555 16.3686 25.5036 16.5239 25.2441 16.8004C24.9846 17.077 24.8388 17.452 24.8388 17.8431V31.5898L18.7901 34.168C18.5336 34.2777 18.3138 34.4667 18.159 34.7107C18.0043 34.9547 17.9217 35.2425 17.9218 35.537H17.9204V62.078C17.9204 62.469 18.0662 62.8441 18.3257 63.1206C18.5852 63.3971 18.9371 63.5525 19.3041 63.5525H60.8144C61.1814 63.5525 61.5333 63.3971 61.7928 63.1206C62.0523 62.8441 62.1981 62.469 62.1981 62.078V35.537H62.1967C62.1968 35.2425 62.1142 34.9547 61.9595 34.7107C61.8047 34.4667 61.5849 34.2777 61.3285 34.168ZM58.0152 35.9322L55.2797 37.7421V34.7666L58.0152 35.9322ZM52.5124 19.3176V39.5727L40.0593 47.8093L27.6062 39.5727V19.3176H52.5124ZM24.8388 37.7421L22.1033 35.9322L24.8388 34.7666V37.7421ZM20.6878 60.6035V38.4676L39.3294 50.7981C39.5487 50.9425 39.8015 51.0189 40.0594 51.0187C40.3172 51.0186 40.5699 50.9419 40.7891 50.7973L59.4307 38.4676V60.6035H20.6878Z" fill="white"/>
<path d="M42.7818 25.227H48.3496C48.7187 25.227 49.0728 25.072 49.3338 24.7959C49.5949 24.5198 49.7415 24.1454 49.7415 23.755C49.7415 23.3646 49.5949 22.9902 49.3338 22.7141C49.0728 22.4381 48.7187 22.283 48.3496 22.283H42.7818C42.4127 22.283 42.0586 22.4381 41.7976 22.7141C41.5365 22.9902 41.3899 23.3646 41.3899 23.755C41.3899 24.1454 41.5365 24.5198 41.7976 24.7959C42.0586 25.072 42.4127 25.227 42.7818 25.227ZM31.6463 31.1152H48.3496C48.7187 31.1152 49.0728 30.9601 49.3338 30.684C49.5949 30.408 49.7415 30.0335 49.7415 29.6431C49.7415 29.2527 49.5949 28.8783 49.3338 28.6023C49.0728 28.3262 48.7187 28.1711 48.3496 28.1711H31.6463C31.2772 28.1711 30.9231 28.3262 30.6621 28.6023C30.401 28.8783 30.2544 29.2527 30.2544 29.6431C30.2544 30.0335 30.401 30.408 30.6621 30.684C30.9231 30.9601 31.2772 31.1152 31.6463 31.1152ZM31.6463 37.0033H48.3496C48.7187 37.0033 49.0728 36.8482 49.3338 36.5722C49.5949 36.2961 49.7415 35.9217 49.7415 35.5313C49.7415 35.1409 49.5949 34.7664 49.3338 34.4904C49.0728 34.2143 48.7187 34.0592 48.3496 34.0592H31.6463C31.2772 34.0592 30.9231 34.2143 30.6621 34.4904C30.401 34.7664 30.2544 35.1409 30.2544 35.5313C30.2544 35.9217 30.401 36.2961 30.6621 36.5722C30.9231 36.8482 31.2772 37.0033 31.6463 37.0033Z" fill="white"/>
</svg>
