<svg width="70" height="70" viewBox="0 0 70 70" fill="none" xmlns="http://www.w3.org/2000/svg">
<g clip-path="url(#clip0_87_65)">
<path d="M43.2276 8.30141L43.2275 8.30144C42.8816 10.5005 40.818 12.004 38.6186 11.6593C36.4196 11.3146 34.9176 9.25296 35.2635 7.05416C35.6095 4.85493 37.6731 3.35153 39.8725 3.69629C42.0715 4.04099 43.5735 6.10261 43.2276 8.30141Z" stroke="#F61F4B" stroke-opacity="0.61" stroke-width="2"/>
<path d="M54.0105 24.6515L54.0105 24.6515C53.6646 26.8506 51.601 28.3541 49.4015 28.0094C47.2025 27.6647 45.7005 25.6031 46.0465 23.4043C46.3925 21.205 48.456 19.7016 50.6555 20.0464C52.8545 20.3911 54.3564 22.4527 54.0105 24.6515Z" stroke="#F61F4B" stroke-opacity="0.61" stroke-width="2"/>
<path d="M27.0852 16.5147C28.3694 18.4394 27.9216 21.0319 26.1888 22.2943C24.2491 23.7075 21.6864 23.2655 20.4446 21.4212C19.1513 19.5005 19.5907 16.9068 21.3159 15.637C23.2371 14.355 25.8204 14.7963 27.0852 16.5147Z" stroke="#F61F4B" stroke-opacity="0.61" stroke-width="2"/>
<path d="M4.87847 32.7621L4.87844 32.762C3.58516 30.8413 4.02458 28.2476 5.74975 26.9778C7.67098 25.6958 10.2542 26.1371 11.5191 27.8555C12.8033 29.7802 12.3554 32.3727 10.6226 33.6351C8.68292 35.0483 6.12013 34.6064 4.87847 32.7621Z" stroke="#F61F4B" stroke-opacity="0.61" stroke-width="2"/>
<path d="M32.4906 31.3229C34.4119 30.0408 36.995 30.482 38.2599 32.2005C39.5404 34.1197 39.0988 36.7029 37.3782 37.9692C35.457 39.2513 32.8738 38.81 31.6089 37.0916C30.3284 35.1724 30.7701 32.5892 32.4906 31.3229Z" stroke="#F61F4B" stroke-opacity="0.61" stroke-width="2"/>
<path d="M20.0144 41.8628L20.0144 41.8628C22.2133 42.2074 23.7153 44.2691 23.3694 46.4679C23.0234 48.6672 20.9598 50.1706 18.7604 49.8258C16.5614 49.4811 15.0593 47.4194 15.4053 45.2206C15.7514 43.0215 17.8149 41.518 20.0144 41.8628Z" stroke="#F61F4B" stroke-opacity="0.61" stroke-width="2"/>
<path d="M65.6514 39.5899L65.6514 39.5899C65.3055 41.789 63.2418 43.2925 61.0424 42.9477C58.8434 42.603 57.3413 40.5413 57.6873 38.3427L57.6873 38.3426C58.0333 36.1434 60.0969 34.64 62.2963 34.9847L62.2964 34.9848C64.4952 35.3293 65.9973 37.391 65.6514 39.5899Z" stroke="#F61F4B" stroke-opacity="0.61" stroke-width="2"/>
<path d="M45.6345 54.1739L45.6345 54.1739C47.8338 54.5188 49.8974 53.0153 50.2435 50.8161C50.5894 48.6173 49.0872 46.5556 46.8884 46.2109C44.689 45.8662 42.6253 47.3696 42.2792 49.5687L45.6345 54.1739ZM45.6345 54.1739C43.4355 53.8292 41.9334 51.7675 42.2792 49.5688L45.6345 54.1739Z" stroke="#F61F4B" stroke-opacity="0.61" stroke-width="2"/>
<path d="M28.3406 58.1635C30.2618 56.8814 32.845 57.3226 34.1099 59.0411C35.3904 60.9603 34.9486 63.5435 33.2282 64.8098C31.3069 66.0919 28.7237 65.6507 27.4588 63.9323C26.1784 62.013 26.6201 59.4298 28.3406 58.1635Z" stroke="#F61F4B" stroke-opacity="0.61" stroke-width="2"/>
</g>
<defs>
<clipPath id="clip0_87_65">
<rect width="49.5896" height="48.9232" fill="white" transform="translate(0.609863 29.4946) rotate(-36.0751)"/>
</clipPath>
</defs>
</svg>
