<svg width="340" height="405" viewBox="0 0 340 405" fill="none" xmlns="http://www.w3.org/2000/svg">
<g clip-path="url(#clip0_44_22)" filter="url(#filter0_d_44_22)">
<path d="M292.307 89.8941L85.7302 286.049C87.8686 288.62 90.0067 291.191 92.1451 293.762L299.837 95.8106C297.612 94.1811 294.959 92.0375 292.307 89.8941Z" fill="#FF5578"/>
<path d="M292.307 89.8941L85.7302 286.049C87.8686 288.62 90.0067 291.191 92.1451 293.762L299.837 95.8106C297.612 94.1811 294.959 92.0375 292.307 89.8941Z" fill="black" fill-opacity="0.2"/>
<path d="M244.72 65.0957L63.086 237.896C64.1959 241.323 64.7915 245.177 66.329 249.118L255.763 68.9602C251.654 67.1578 247.973 65.8697 244.72 65.0957Z" fill="#FF5578"/>
<path d="M244.72 65.0957L63.086 237.896C64.1959 241.323 64.7915 245.177 66.329 249.118L255.763 68.9602C251.654 67.1578 247.973 65.8697 244.72 65.0957Z" fill="black" fill-opacity="0.2"/>
<path d="M270.314 75.9991L72.0516 264.369C73.6755 267.368 75.2997 270.366 76.9236 273.365L279.387 80.6322C276.22 78.9165 273.053 77.2007 270.314 75.9991Z" fill="#FF5578"/>
<path d="M270.314 75.9991L72.0516 264.369C73.6755 267.368 75.2997 270.366 76.9236 273.365L279.387 80.6322C276.22 78.9165 273.053 77.2007 270.314 75.9991Z" fill="black" fill-opacity="0.2"/>
<path d="M213.469 58.8999L57.8937 206.55C57.9752 210.832 58.4842 215.628 59.0799 219.482L226.656 60.112C222.889 59.7657 218.179 59.3325 213.469 58.8999Z" fill="#FF5578"/>
<path d="M213.469 58.8999L57.8937 206.55C57.9752 210.832 58.4842 215.628 59.0799 219.482L226.656 60.112C222.889 59.7657 218.179 59.3325 213.469 58.8999Z" fill="black" fill-opacity="0.2"/>
<path d="M174.331 61.0017L62.4713 167.077C61.0098 172.642 59.9764 178.721 59.457 184.372L191.632 58.7927C185.894 59.215 179.642 60.0649 174.331 61.0017Z" fill="#FF5578"/>
<path d="M174.331 61.0017L62.4713 167.077C61.0098 172.642 59.9764 178.721 59.457 184.372L191.632 58.7927C185.894 59.215 179.642 60.0649 174.331 61.0017Z" fill="black" fill-opacity="0.2"/>
<path d="M140.494 72.6138C113.164 85.7743 90.2774 107.417 75.9497 134.121L140.494 72.6138Z" fill="#FF5578"/>
<path d="M140.494 72.6138C113.164 85.7743 90.2774 107.417 75.9497 134.121L140.494 72.6138Z" fill="black" fill-opacity="0.2"/>
<path d="M345.361 215.403L207.958 346.201C213.695 345.779 218.919 345.784 224.23 344.848L342.861 232.271C343.895 226.192 344.842 221.054 345.361 215.403Z" fill="#FF5578"/>
<path d="M345.361 215.403L207.958 346.201C213.695 345.779 218.919 345.784 224.23 344.848L342.861 232.271C343.895 226.192 344.842 221.054 345.361 215.403Z" fill="black" fill-opacity="0.2"/>
<path d="M344.71 181.146L174.049 343.083C178.244 343.944 182.439 344.804 186.721 344.723L345.983 193.137C345.387 189.282 345.306 185.001 344.71 181.146Z" fill="#FF5578"/>
<path d="M344.71 181.146L174.049 343.083C178.244 343.944 182.439 344.804 186.721 344.723L345.983 193.137C345.387 189.282 345.306 185.001 344.71 181.146Z" fill="black" fill-opacity="0.2"/>
<path d="M332.983 262.233L255.924 335.888C272.201 329.31 286.34 320.162 299.282 308.528L303.483 304.165C315.998 292.017 325.86 277.726 332.983 262.233Z" fill="#FF5578"/>
<path d="M332.983 262.233L255.924 335.888C272.201 329.31 286.34 320.162 299.282 308.528L303.483 304.165C315.998 292.017 325.86 277.726 332.983 262.233Z" fill="black" fill-opacity="0.2"/>
<path d="M325.839 128.119L122.347 321.708C125 323.851 128.167 325.567 131.334 327.283L331.139 137.63C329.515 134.631 327.463 131.118 325.839 128.119Z" fill="#FF5578"/>
<path d="M325.839 128.119L122.347 321.708C125 323.851 128.167 325.567 131.334 327.283L331.139 137.63C329.515 134.631 327.463 131.118 325.839 128.119Z" fill="black" fill-opacity="0.2"/>
<path d="M310.616 107.724L102.409 306.103C105.062 308.246 107.2 310.817 109.853 312.961L316.944 116.379C314.892 112.866 312.754 110.295 310.616 107.724Z" fill="#FF5578"/>
<path d="M310.616 107.724L102.409 306.103C105.062 308.246 107.2 310.817 109.853 312.961L316.944 116.379C314.892 112.866 312.754 110.295 310.616 107.724Z" fill="black" fill-opacity="0.2"/>
<path d="M337.376 152.452L145.885 334.32C149.567 335.608 152.733 337.324 156.414 338.612L341.133 163.246C340.024 159.819 338.486 155.878 337.376 152.452Z" fill="#FF5578"/>
<path d="M337.376 152.452L145.885 334.32C149.567 335.608 152.733 337.324 156.414 338.612L341.133 163.246C340.024 159.819 338.486 155.878 337.376 152.452Z" fill="black" fill-opacity="0.2"/>
</g>
<defs>
<filter id="filter0_d_44_22" x="-3.99994" y="0" width="412.844" height="412.844" filterUnits="userSpaceOnUse" color-interpolation-filters="sRGB">
<feFlood flood-opacity="0" result="BackgroundImageFix"/>
<feColorMatrix in="SourceAlpha" type="matrix" values="0 0 0 0 0 0 0 0 0 0 0 0 0 0 0 0 0 0 127 0" result="hardAlpha"/>
<feOffset dy="4"/>
<feGaussianBlur stdDeviation="2"/>
<feComposite in2="hardAlpha" operator="out"/>
<feColorMatrix type="matrix" values="0 0 0 0 0 0 0 0 0 0 0 0 0 0 0 0 0 0 0.25 0"/>
<feBlend mode="normal" in2="BackgroundImageFix" result="effect1_dropShadow_44_22"/>
<feBlend mode="normal" in="SourceGraphic" in2="effect1_dropShadow_44_22" result="shape"/>
</filter>
<clipPath id="clip0_44_22">
<rect width="287.475" height="287.475" fill="white" transform="translate(221.028) rotate(50.2518)"/>
</clipPath>
</defs>
</svg>
