<svg width="35" height="35" viewBox="0 0 35 35" fill="none" xmlns="http://www.w3.org/2000/svg">
<g id="Group 110">
<circle id="Ellipse 5" cx="17.5" cy="17.5" r="17.5" fill="#F61F4B"/>
<g id="search">
<mask id="path-2-inside-1_125_12" fill="white">
<path d="M24.77 22.6659L22.1264 20.0301C22.9794 18.9435 23.4422 17.6016 23.4404 16.2202C23.4404 14.99 23.0756 13.7874 22.3921 12.7645C21.7087 11.7415 20.7372 10.9443 19.6006 10.4735C18.464 10.0027 17.2133 9.87951 16.0067 10.1195C14.8001 10.3595 13.6918 10.9519 12.8219 11.8219C11.9519 12.6918 11.3595 13.8001 11.1195 15.0067C10.8795 16.2133 11.0027 17.464 11.4735 18.6006C11.9443 19.7372 12.7415 20.7087 13.7645 21.3921C14.7874 22.0756 15.99 22.4404 17.2202 22.4404C18.6016 22.4422 19.9435 21.9794 21.0301 21.1264L23.6659 23.77C23.7382 23.8429 23.8242 23.9007 23.9189 23.9402C24.0137 23.9797 24.1153 24 24.218 24C24.3206 24 24.4222 23.9797 24.517 23.9402C24.6117 23.9007 24.6977 23.8429 24.77 23.77C24.8429 23.6977 24.9007 23.6117 24.9402 23.517C24.9797 23.4222 25 23.3206 25 23.218C25 23.1153 24.9797 23.0137 24.9402 22.9189C24.9007 22.8242 24.8429 22.7382 24.77 22.6659ZM12.5551 16.2202C12.5551 15.2975 12.8287 14.3956 13.3413 13.6284C13.8539 12.8612 14.5825 12.2633 15.4349 11.9102C16.2874 11.5571 17.2254 11.4647 18.1303 11.6447C19.0353 11.8247 19.8666 12.269 20.519 12.9215C21.1714 13.5739 21.6157 14.4051 21.7957 15.3101C21.9757 16.215 21.8834 17.1531 21.5303 18.0055C21.1772 18.8579 20.5792 19.5865 19.812 20.0992C19.0449 20.6118 18.1429 20.8854 17.2202 20.8854C15.9829 20.8854 14.7963 20.3939 13.9215 19.519C13.0466 18.6441 12.5551 17.4575 12.5551 16.2202Z"/>
</mask>
<path d="M24.77 22.6659L22.1264 20.0301C22.9794 18.9435 23.4422 17.6016 23.4404 16.2202C23.4404 14.99 23.0756 13.7874 22.3921 12.7645C21.7087 11.7415 20.7372 10.9443 19.6006 10.4735C18.464 10.0027 17.2133 9.87951 16.0067 10.1195C14.8001 10.3595 13.6918 10.9519 12.8219 11.8219C11.9519 12.6918 11.3595 13.8001 11.1195 15.0067C10.8795 16.2133 11.0027 17.464 11.4735 18.6006C11.9443 19.7372 12.7415 20.7087 13.7645 21.3921C14.7874 22.0756 15.99 22.4404 17.2202 22.4404C18.6016 22.4422 19.9435 21.9794 21.0301 21.1264L23.6659 23.77C23.7382 23.8429 23.8242 23.9007 23.9189 23.9402C24.0137 23.9797 24.1153 24 24.218 24C24.3206 24 24.4222 23.9797 24.517 23.9402C24.6117 23.9007 24.6977 23.8429 24.77 23.77C24.8429 23.6977 24.9007 23.6117 24.9402 23.517C24.9797 23.4222 25 23.3206 25 23.218C25 23.1153 24.9797 23.0137 24.9402 22.9189C24.9007 22.8242 24.8429 22.7382 24.77 22.6659ZM12.5551 16.2202C12.5551 15.2975 12.8287 14.3956 13.3413 13.6284C13.8539 12.8612 14.5825 12.2633 15.4349 11.9102C16.2874 11.5571 17.2254 11.4647 18.1303 11.6447C19.0353 11.8247 19.8666 12.269 20.519 12.9215C21.1714 13.5739 21.6157 14.4051 21.7957 15.3101C21.9757 16.215 21.8834 17.1531 21.5303 18.0055C21.1772 18.8579 20.5792 19.5865 19.812 20.0992C19.0449 20.6118 18.1429 20.8854 17.2202 20.8854C15.9829 20.8854 14.7963 20.3939 13.9215 19.519C13.0466 18.6441 12.5551 17.4575 12.5551 16.2202Z" fill="white"/>
<path d="M24.77 22.6659L22.6518 24.7904L22.6574 24.7959L24.77 22.6659ZM22.1264 20.0301L19.7666 18.1778L18.1216 20.2735L20.0082 22.1545L22.1264 20.0301ZM23.4404 16.2202H20.4404L20.4404 16.224L23.4404 16.2202ZM17.2202 22.4404L17.224 19.4404H17.2202V22.4404ZM21.0301 21.1264L23.1545 19.0082L21.2735 17.1216L19.1778 18.7666L21.0301 21.1264ZM23.6659 23.77L25.7959 21.6574L25.7904 21.6518L23.6659 23.77ZM24.77 23.77L22.6574 21.64L22.6487 21.6487L22.64 21.6574L24.77 23.77ZM12.5551 16.2202H9.55506H12.5551ZM17.2202 20.8854V23.8854V20.8854ZM26.8882 20.5415L24.2446 17.9057L20.0082 22.1545L22.6518 24.7904L26.8882 20.5415ZM24.4863 21.8824C25.7547 20.2664 26.443 18.2709 26.4404 16.2165L20.4404 16.224C20.4413 16.9324 20.204 17.6205 19.7666 18.1778L24.4863 21.8824ZM26.4404 16.2202C26.4404 14.3966 25.8997 12.614 24.8865 11.0977L19.8977 14.4312C20.2516 14.9607 20.4404 15.5833 20.4404 16.2202H26.4404ZM24.8865 11.0977C23.8734 9.58149 22.4334 8.39971 20.7486 7.70185L18.4525 13.2451C19.041 13.4889 19.5439 13.9016 19.8977 14.4312L24.8865 11.0977ZM20.7486 7.70185C19.0639 7.00399 17.21 6.8214 15.4214 7.17717L16.592 13.0619C17.2166 12.9376 17.8641 13.0014 18.4525 13.2451L20.7486 7.70185ZM15.4214 7.17717C13.6329 7.53293 11.99 8.41107 10.7005 9.70054L14.9432 13.9432C15.3935 13.4928 15.9673 13.1861 16.592 13.0619L15.4214 7.17717ZM10.7005 9.70054C9.41107 10.99 8.53293 12.6329 8.17717 14.4214L14.0619 15.592C14.1861 14.9673 14.4928 14.3935 14.9432 13.9432L10.7005 9.70054ZM8.17717 14.4214C7.8214 16.21 8.00399 18.0639 8.70185 19.7486L14.2451 17.4525C14.0014 16.8641 13.9376 16.2166 14.0619 15.592L8.17717 14.4214ZM8.70185 19.7486C9.39971 21.4334 10.5815 22.8734 12.0977 23.8865L15.4312 18.8977C14.9016 18.5439 14.4889 18.041 14.2451 17.4525L8.70185 19.7486ZM12.0977 23.8865C13.614 24.8997 15.3966 25.4404 17.2202 25.4404V19.4404C16.5833 19.4404 15.9607 19.2516 15.4312 18.8977L12.0977 23.8865ZM17.2165 25.4404C19.2709 25.443 21.2664 24.7547 22.8824 23.4863L19.1778 18.7666C18.6205 19.204 17.9324 19.4413 17.224 19.4404L17.2165 25.4404ZM18.9057 23.2446L21.5415 25.8882L25.7904 21.6518L23.1545 19.0082L18.9057 23.2446ZM21.5359 25.8826C21.8871 26.2366 22.3049 26.5177 22.7652 26.7095L25.0727 21.1709C25.3435 21.2838 25.5893 21.4491 25.7959 21.6574L21.5359 25.8826ZM22.7652 26.7095C23.2256 26.9013 23.7193 27 24.218 27V21C24.5113 21 24.8018 21.0581 25.0727 21.1709L22.7652 26.7095ZM24.218 27C24.7166 27 25.2104 26.9013 25.6707 26.7095L23.3633 21.1709C23.6341 21.0581 23.9246 21 24.218 21V27ZM25.6707 26.7095C26.1311 26.5177 26.5489 26.2367 26.9 25.8826L22.64 21.6574C22.8466 21.4491 23.0924 21.2838 23.3633 21.1709L25.6707 26.7095ZM26.8826 25.9C27.2367 25.5489 27.5177 25.1311 27.7095 24.6707L22.1709 22.3633C22.2838 22.0924 22.4491 21.8466 22.6574 21.64L26.8826 25.9ZM27.7095 24.6707C27.9013 24.2104 28 23.7166 28 23.218H22C22 22.9246 22.0581 22.6341 22.1709 22.3633L27.7095 24.6707ZM28 23.218C28 22.7193 27.9013 22.2256 27.7095 21.7652L22.1709 24.0727C22.0581 23.8018 22 23.5113 22 23.218H28ZM27.7095 21.7652C27.5177 21.3049 27.2366 20.8871 26.8826 20.5359L22.6574 24.7959C22.4491 24.5893 22.2838 24.3435 22.1709 24.0727L27.7095 21.7652ZM15.5551 16.2202C15.5551 15.8909 15.6527 15.5689 15.8357 15.2951L10.8469 11.9617C10.0046 13.2222 9.55506 14.7042 9.55506 16.2202H15.5551ZM15.8357 15.2951C16.0187 15.0213 16.2787 14.8078 16.583 14.6818L14.2869 9.13853C12.8863 9.71869 11.6891 10.7012 10.8469 11.9617L15.8357 15.2951ZM16.583 14.6818C16.8873 14.5558 17.2221 14.5228 17.5451 14.5871L18.7156 8.70234C17.2287 8.40658 15.6875 8.55837 14.2869 9.13853L16.583 14.6818ZM17.5451 14.5871C17.8681 14.6513 18.1648 14.8099 18.3977 15.0428L22.6403 10.8001C21.5683 9.72814 20.2025 8.9981 18.7156 8.70234L17.5451 14.5871ZM18.3977 15.0428C18.6305 15.2757 18.7891 15.5724 18.8534 15.8954L24.7381 14.7248C24.4423 13.2379 23.7123 11.8721 22.6403 10.8001L18.3977 15.0428ZM18.8534 15.8954C18.9176 16.2184 18.8847 16.5532 18.7586 16.8575L24.3019 19.1536C24.8821 17.7529 25.0339 16.2117 24.7381 14.7248L18.8534 15.8954ZM18.7586 16.8575C18.6326 17.1617 18.4192 17.4218 18.1453 17.6048L21.4788 22.5936C22.7393 21.7513 23.7217 20.5542 24.3019 19.1536L18.7586 16.8575ZM18.1453 17.6048C17.8715 17.7877 17.5496 17.8854 17.2202 17.8854V23.8854C18.7362 23.8854 20.2182 23.4358 21.4788 22.5936L18.1453 17.6048ZM17.2202 17.8854C16.7786 17.8854 16.3551 17.7099 16.0428 17.3977L11.8001 21.6403C13.2376 23.0778 15.1873 23.8854 17.2202 23.8854V17.8854ZM16.0428 17.3977C15.7305 17.0854 15.5551 16.6618 15.5551 16.2202H9.55506C9.55506 18.2531 10.3626 20.2028 11.8001 21.6403L16.0428 17.3977Z" fill="white" mask="url(#path-2-inside-1_125_12)"/>
</g>
</g>
</svg>
