<svg width="1440" height="551" viewBox="0 0 1440 551" fill="none" xmlns="http://www.w3.org/2000/svg">
<path d="M-29 243.731C-21.5965 276.43 71.0402 408.972 112.13 444.847C153.219 480.722 221.178 485.954 250.021 484.085C276.087 482.333 350.061 493.264 437.423 551H486.471C470.122 535.819 450.379 493.754 502.204 446.949C554.028 400.144 606.161 372.093 625.75 363.919C648.886 352.591 705.546 333.78 727.549 329.936C757.625 324.681 829.81 292.099 819.167 256.715L818.77 255.394C808.272 220.495 798.338 187.471 802.047 169.48C805.802 151.263 795.106 100.113 926.981 79.7934C950.734 74.3047 1033.68 68.5825 1175.46 89.6029C1213.1 93.1063 1282.54 91.1444 1259.21 55.2696C1244.87 43.8252 1251.2 8.48327 1274.89 2.03702C1304.5 -6.02078 1441.06 11.9555 1453.56 18.9623C1463.55 24.5677 1453.56 66.4073 1453.56 89.6029V309.666V529.629V551H486.471H437.423H-29V519.469V462.364V375.48V301.908V243.731Z" fill="#F61F4B"/>
<path d="M601.834 419.021C610.788 420.015 619.417 422.999 627.558 425.983C652.142 435.362 675.424 448.719 694.635 464.918C703.589 472.591 712.055 481.259 717.591 491.206C720.033 495.469 721.987 500.016 722.964 504.705C723.452 506.979 725.406 524.457 728.825 525.736C740.384 530.283 757.153 522.894 769.853 522.183C775.062 521.899 780.761 521.473 785.157 518.773C795.088 512.663 792.32 497.032 789.227 488.364C786.785 481.828 781.738 475.717 774.248 473.444C767.736 471.454 760.247 472.733 754.06 470.034C739.57 463.923 742.012 442.182 727.359 436.499C718.893 433.23 708.962 437.067 700.008 435.078C689.425 432.804 684.378 422.573 676.4 416.179C655.724 399.838 624.139 405.379 601.834 419.021Z" fill="url(#paint0_linear_524_2)"/>
<path d="M832.208 472.449C836.442 481.686 838.232 510.389 835.139 535.256C839.372 533.977 843.605 532.557 847.838 531.278C847.838 507.69 844.745 477.281 841.489 469.039C833.185 448.151 819.672 428.257 799.647 414.616C792.483 409.642 784.506 405.522 777.016 400.975C734.035 374.118 707.985 327.51 710.59 281.329C711.242 269.819 713.521 257.883 709.939 246.799C706.195 235.289 695.775 226.479 684.867 219.232L683.401 221.222C670.539 239.552 672.168 261.861 684.053 280.76C690.402 290.849 700.008 299.659 703.915 310.601C705.543 315.148 706.195 319.979 706.683 324.811C709.614 349.535 721.499 369.003 740.384 387.76C771.155 418.026 810.718 423.994 832.208 472.449Z" fill="url(#paint1_linear_524_2)"/>
<path d="M719.87 334.899C719.708 328.647 731.918 318.7 734.523 315.574C745.431 302.217 745.92 279.482 739.57 263.993C724.103 274.082 713.847 289.997 711.893 306.622L714.986 330.21L719.87 334.899Z" fill="url(#paint2_linear_524_2)"/>
<path d="M729.639 353.23C739.082 353.372 743.803 349.962 749.176 344.136C754.549 338.31 756.665 330.495 757.642 322.963C758.293 318.701 758.727 314.438 758.945 310.175C746.897 313.869 722.313 322.679 720.522 336.178L724.918 349.678C724.918 349.678 728.337 353.23 729.639 353.23Z" fill="url(#paint3_linear_524_2)"/>
<path d="M706.52 323.532C705.38 319.127 698.217 314.864 694.147 314.011C674.935 309.748 662.562 311.595 658.329 313.727C662.399 326.658 678.191 335.752 682.099 338.168C689.913 342.999 702.124 344.136 710.427 342.431C710.427 342.431 711.079 334.473 711.079 334.047C711.079 333.763 706.52 323.532 706.52 323.532Z" fill="url(#paint4_linear_524_2)"/>
<path d="M725.895 370.85C713.684 380.228 684.378 373.408 674.121 364.882C669.237 360.903 664.19 358.203 660.446 353.372C668.26 346.835 681.936 341.862 692.519 343.141C699.031 343.994 713.033 348.541 715.312 353.94C715.312 353.94 722.476 358.772 723.127 360.761C723.778 362.75 725.895 370.85 725.895 370.85Z" fill="url(#paint5_linear_524_2)"/>
<path d="M812.183 440.051C803.229 464.918 776.854 472.592 760.41 472.307C750.967 472.023 738.268 471.455 729.802 471.171C733.221 457.245 744.455 444.741 759.27 438.772C764.969 436.499 771.155 435.504 777.017 432.946C777.017 432.946 790.204 424.705 805.182 429.82C817.882 434.225 812.183 440.051 812.183 440.051Z" fill="url(#paint6_linear_524_2)"/>
<path d="M763.341 391.312C762.201 388.754 765.131 384.065 766.759 380.37C769.039 374.971 770.341 369.287 770.667 363.461C770.83 360.761 770.83 358.061 769.69 355.503C768.225 352.093 765.294 349.535 762.364 346.978C759.542 344.515 756.72 342.052 753.898 339.589C742.664 346.409 738.431 359.624 742.175 370.992C742.338 371.418 750.479 381.081 751.455 382.928C752.595 384.633 763.992 392.733 763.341 391.312Z" fill="url(#paint7_linear_524_2)"/>
<path d="M797.205 413.195C798.995 411.774 802.74 405.522 802.903 404.243C804.368 397.564 802.74 392.022 799.484 385.912C796.228 379.944 791.181 374.687 785.482 370.424C781.575 367.44 777.179 364.882 773.923 361.187C765.945 374.118 768.225 391.738 779.458 402.538L788.25 413.053L797.205 413.195Z" fill="url(#paint8_linear_524_2)"/>
<path d="M833.022 474.439C830.906 478.275 828.138 482.112 824.231 484.812C822.277 486.233 819.998 487.227 817.881 488.364C814.408 489.974 810.935 491.585 807.462 493.195C804.694 494.616 801.763 495.895 798.67 496.464C795.576 497.032 792.483 496.89 789.39 496.464C778.319 495.185 767.411 492.201 757.479 487.938C768.225 484.954 776.691 477.849 784.994 471.17C793.297 464.492 802.252 457.813 813.323 455.966C816.579 455.398 819.998 455.255 823.091 455.966L824.719 456.819L833.185 468.328L833.022 474.439Z" fill="url(#paint9_linear_524_2)"/>
<path d="M699.845 300.796C699.845 300.701 699.845 300.607 699.845 300.512C698.868 297.812 697.077 295.254 694.961 293.123C690.239 288.718 683.401 286.444 676.726 285.876C669.888 285.165 663.05 285.876 656.212 286.444C656.538 290.707 658.817 294.828 661.91 298.096C665.004 301.364 669.074 303.922 673.144 306.338C677.703 309.038 682.75 311.595 688.285 312.164C693.821 312.874 700.008 311.311 703.264 307.475L699.845 300.796Z" fill="url(#paint10_linear_524_2)"/>
<path d="M546.968 464.461C557.225 463.892 567.482 465.313 577.576 467.16C607.207 472.418 636.675 482.507 662.236 496.717C674.284 503.395 686.006 511.353 694.798 521.157C698.705 525.42 702.124 530.109 704.404 535.083C705.543 537.499 705.706 540.767 707.009 543.04C708.962 546.593 714.661 548.298 718.731 549.15C732.732 551.85 747.222 548.44 761.061 545.03C766.922 543.609 772.946 541.904 777.179 538.067C786.459 529.399 779.459 512.489 773.597 503.537C769.202 496.717 761.875 491.033 753.084 490.038C745.269 489.185 737.291 492.027 729.639 490.322C712.056 486.486 708.8 461.903 691.053 458.493C680.797 456.503 670.702 462.898 660.283 462.471C648.072 462.045 639.769 451.814 629.023 446.272C601.834 432.347 568.133 444.993 546.968 464.461Z" fill="url(#paint11_linear_524_2)"/>
<path d="M739.896 550.346C729.476 541.678 713.358 542.957 699.031 544.235C681.773 545.799 666.306 550.204 649.049 549.493C631.628 548.783 609.649 542.246 595.81 532.868C569.598 515.106 574.482 494.928 574.482 494.928C578.064 493.791 584.251 514.537 602.648 517.379C613.394 518.942 625.279 515.532 633.582 521.784C635.861 523.489 637.489 525.763 639.769 527.326C645.304 531.02 653.282 529.457 659.794 527.184C669.237 523.774 678.191 519.369 687.96 516.669C697.729 514.111 708.799 513.685 717.591 518.374C721.499 520.363 724.755 523.347 728.662 525.337C734.035 528.179 740.547 529.031 745.269 532.584C749.99 535.994 751.455 543.809 745.92 546.083" fill="url(#paint12_linear_524_2)"/>
<path d="M734.198 381.365C713.032 372.413 678.354 377.813 665.981 386.623C675.098 397.422 686.983 405.522 702.124 407.795C729.965 411.916 759.27 403.674 760.247 404.243C743.152 406.801 714.335 416.179 704.078 432.236C736.314 447.298 774.248 438.488 789.227 423C789.227 423 788.576 417.316 787.762 416.747C786.948 416.037 734.198 381.365 734.198 381.365Z" fill="url(#paint13_linear_524_2)"/>
<path d="M823.417 437.209C823.417 432.094 826.347 428.115 828.626 423.284C834.325 411.348 829.603 396.854 819.672 387.191C815.765 383.355 811.043 380.086 808.601 375.539C803.717 379.944 803.228 386.623 803.391 392.875C803.554 405.38 805.996 418.026 815.439 427.405C815.439 427.405 815.927 435.078 816.741 435.362C817.393 435.646 823.417 437.209 823.417 437.209Z" fill="url(#paint14_linear_524_2)"/>
<path d="M841.163 470.176C843.442 466.197 847.024 462.929 849.466 459.092C854.513 451.703 855.979 442.609 854.188 434.083C852.397 425.7 847.512 417.742 840.837 411.49C838.721 409.5 836.279 407.511 835.139 404.953C825.208 419.731 823.742 438.204 833.674 452.84C833.674 452.84 834.488 463.071 834.651 463.497C834.813 463.924 841.163 470.176 841.163 470.176Z" fill="url(#paint15_linear_524_2)"/>
<path d="M869.655 352.946C863.794 358.914 859.398 366.019 855.49 373.124C843.931 394.154 836.442 417.6 834.162 440.762C833.186 451.703 833.348 463.071 836.442 473.728C837.907 478.418 839.861 482.965 842.628 487.085C844.094 489.075 855.653 503.285 854.188 506.269C848.815 516.357 830.581 520.336 820.486 527.015C816.253 529.857 811.695 532.699 806.322 533.267C794.274 534.262 784.506 520.905 780.436 512.663C777.179 506.411 776.528 498.737 780.436 492.769C783.855 487.654 790.53 484.244 793.135 478.702C799.484 465.771 781.25 450.709 788.088 438.062C791.995 430.815 802.415 427.973 807.625 421.295C813.811 413.479 810.067 402.964 811.369 393.586C814.625 369.429 842.628 355.504 869.655 352.946Z" fill="url(#paint16_linear_524_2)"/>
<path d="M839.86 508.968C832.371 513.515 822.766 514.51 813.811 513.089C804.857 511.668 796.716 508.116 788.739 504.421C792.809 504.705 796.879 503.427 800.461 501.437C803.88 499.59 806.973 497.032 810.229 494.759C816.09 490.922 822.44 487.938 829.278 485.807C832.86 484.67 837.256 484.101 840.023 486.375C840.023 486.375 842.14 489.217 842.465 491.775C842.791 494.332 842.628 504.705 842.628 504.705L839.86 508.968Z" fill="url(#paint17_linear_524_2)"/>
<path d="M914.101 407.511C903.519 398.275 879.912 338.452 879.098 325.379C877.795 303.78 881.54 281.471 893.588 262.572C897.983 255.751 903.356 249.499 908.077 242.963C935.592 204.738 939.174 154.294 917.195 113.37C911.659 103.139 904.659 93.1922 903.03 81.9665C901.402 70.4567 907.101 59.0889 913.939 49L916.055 50.421C935.592 62.6413 943.57 83.3875 940.965 104.276C939.5 115.501 934.453 126.443 935.755 137.669C936.081 142.358 937.709 146.905 939.174 151.31C947.152 174.756 944.709 196.071 935.592 219.09C920.777 256.462 887.726 274.65 888.866 325.379C889.192 340.441 915.078 396.712 936.732 410.211" fill="url(#paint18_linear_524_2)"/>
<path d="M885.773 457.387C876.818 465.061 869.818 474.865 866.724 485.523C865.096 490.922 865.422 496.038 865.096 501.58C864.77 507.121 860.212 510.674 854.188 513.231C849.304 515.363 843.443 515.789 838.558 513.942C831.069 511.1 827.324 503.569 825.696 496.606C823.58 487.086 821.789 475.434 830.906 469.75C845.071 461.082 835.628 449.43 851.583 434.936C857.607 429.536 874.376 427.405 881.703 423.284C890.494 418.169 893.262 407.938 900.751 401.259C910.52 392.449 927.777 391.738 939.662 398.275C943.081 400.122 946.338 402.68 950.245 403.533C957.409 405.238 964.735 401.685 971.573 399.27C981.83 395.717 993.552 394.723 1003.97 397.707C1014.55 400.691 1023.67 408.08 1026.77 417.316C997.297 408.08 965.061 418.595 936.569 429.963C918.335 437.21 899.937 445.025 885.773 457.387Z" fill="url(#paint19_linear_524_2)"/>
<path d="M847.187 500.585C854.35 498.169 861.188 494.759 865.096 489.217C868.026 485.096 868.84 480.123 869.003 475.433C869.329 468.613 868.189 461.792 865.91 455.256C865.421 453.408 864.607 451.703 864.607 449.856C864.444 447.867 865.096 445.877 866.724 444.74C857.607 447.156 850.443 453.693 847.024 461.366C843.605 468.897 845.396 477.281 845.721 485.522C845.721 486.517 843.442 495.611 843.442 495.611L847.187 500.585Z" fill="url(#paint20_linear_524_2)"/>
<path d="M931.685 164.667C929.08 159.125 913.776 154.152 910.194 152.163C894.727 143.637 884.633 123.317 883.656 107.26C901.891 111.381 917.846 122.322 926.801 136.674L934.127 158.983L931.685 164.667Z" fill="url(#paint21_linear_524_2)"/>
<path d="M930.545 184.561C922.079 187.687 916.543 186.124 909.217 182.713C901.728 179.161 896.681 172.767 892.448 166.23C890.06 162.63 887.835 158.936 885.772 155.147C898.309 154.578 924.195 154.436 931.685 166.23L933.475 179.729C933.475 179.729 931.847 184.134 930.545 184.561Z" fill="url(#paint22_linear_524_2)"/>
<path d="M938.848 150.173C938.034 145.91 942.593 139.658 946.012 137.527C961.479 127.438 973.364 125.164 978.085 125.733C979.876 138.663 969.619 152.02 967.177 155.431C962.13 162.394 951.71 167.225 943.244 168.504C943.244 168.504 939.5 161.541 939.174 161.257C939.011 160.83 938.848 150.173 938.848 150.173Z" fill="url(#paint23_linear_524_2)"/>
<path d="M941.453 199.197C956.595 203.602 980.039 187.971 985.737 176.887C988.342 171.772 991.761 167.651 993.064 162.109C983.295 158.841 968.805 158.699 959.851 163.388C954.315 166.23 943.733 174.898 943.896 180.44C943.896 180.44 939.5 187.118 939.825 189.108C939.988 191.097 941.453 199.197 941.453 199.197Z" fill="url(#paint24_linear_524_2)"/>
<path d="M893.099 289.57C911.822 309.18 939.011 307.617 953.664 301.933C961.967 298.664 973.201 293.975 980.69 290.991C971.736 279.481 956.269 271.95 940.477 271.382C934.29 271.098 928.266 272.234 921.916 271.808C921.916 271.808 906.45 268.682 895.053 278.202C885.447 286.302 893.099 289.57 893.099 289.57Z" fill="url(#paint25_linear_524_2)"/>
<path d="M916.381 229.89C916.381 227.19 911.659 223.78 908.729 221.08C904.333 216.959 900.751 212.128 897.983 207.012C896.681 204.596 895.541 202.181 895.378 199.481C895.216 196.071 896.844 192.66 898.472 189.534C899.883 186.408 901.348 183.282 902.868 180.156C915.892 182.571 925.498 193.087 926.801 204.596C926.963 205.023 923.707 216.391 923.544 218.38C923.382 220.369 916.381 231.311 916.381 229.89Z" fill="url(#paint26_linear_524_2)"/>
<path d="M895.215 260.583C892.936 259.872 886.912 255.325 886.261 254.33C882.191 248.789 881.214 243.247 881.539 236.71C881.865 230.174 884.307 223.922 887.563 218.238C889.843 214.259 892.773 210.422 894.076 206.159C906.775 215.112 912.147 231.737 906.612 245.094L903.193 257.456L895.215 260.583Z" fill="url(#paint27_linear_524_2)"/>
<path d="M881.866 290.707C879.586 286.16 875.19 283.46 871.12 279.908C860.863 270.814 858.91 256.32 863.794 244.383C865.748 239.694 868.515 235.147 869.004 230.174C875.19 232.732 878.447 238.557 880.889 244.099C886.099 255.467 889.355 267.687 884.796 279.339C884.796 279.339 887.564 286.444 887.076 286.871C886.587 287.439 881.866 290.707 881.866 290.707Z" fill="url(#paint28_linear_524_2)"/>
<path d="M879.912 326.232C876.004 323.39 871.446 321.542 867.538 318.985C859.886 313.869 854.676 306.196 852.723 297.954C850.606 289.713 851.746 281.045 855.165 273.087C856.304 270.672 857.607 268.114 857.444 265.414C872.748 275.503 881.865 291.702 879.26 308.185C879.26 308.185 882.842 317.564 882.842 318.132C883.005 318.558 879.912 326.232 879.912 326.232Z" fill="url(#paint29_linear_524_2)"/>
<path d="M887.4 355.646C879.911 355.788 872.259 354.935 866.235 351.098C862.002 348.399 859.072 344.278 856.955 340.015C853.862 333.905 851.745 327.368 851.094 320.832C850.931 318.985 850.768 317.137 850.117 315.432C849.303 313.727 848.001 312.022 846.047 311.595C855.164 310.743 864.444 314.437 870.794 320.121C877.143 325.947 879.097 334.047 882.353 341.578C882.679 342.431 888.703 349.962 888.703 349.962L887.4 355.646Z" fill="url(#paint30_linear_524_2)"/>
<path d="M888.866 327.368C892.611 330.21 896.681 332.768 901.239 333.905C903.682 334.615 906.124 334.757 908.729 335.041C912.527 335.42 916.326 335.799 920.125 336.178C923.219 336.462 926.312 336.747 929.405 336.178C932.336 335.752 935.104 334.473 937.709 333.194C947.151 328.363 955.78 322.253 962.944 315.006C952.036 315.858 941.29 312.164 931.033 308.896C920.614 305.627 909.705 302.501 898.797 304.348C895.704 304.917 892.611 305.911 890.006 307.617L889.029 308.753L886.261 321.968L888.866 327.368Z" fill="url(#paint31_linear_524_2)"/>
<path d="M900.588 359.624C909.217 361.472 918.334 359.198 925.823 354.935C933.15 350.814 939.174 344.988 944.709 339.02C941.127 340.725 936.894 340.725 932.824 340.157C928.917 339.589 925.009 338.31 921.102 337.457C914.427 335.752 907.263 335.042 900.262 335.468C896.518 335.61 892.122 336.463 890.657 339.447C890.657 339.447 890.006 342.715 890.82 345.131C891.634 347.546 896.192 356.782 896.192 356.782L900.588 359.624Z" fill="url(#paint32_linear_524_2)"/>
<path d="M935.104 127.438C935.104 127.343 935.104 127.248 935.104 127.154C934.778 124.454 935.267 121.612 936.406 118.912C938.686 113.512 943.895 109.249 949.757 106.407C955.618 103.565 961.967 102.002 968.48 100.439C969.945 104.418 969.619 108.823 968.317 112.802C966.851 116.78 964.409 120.333 961.642 123.885C958.548 127.722 955.129 131.701 950.408 134.116C945.686 136.39 939.5 137.1 934.941 134.543L935.104 127.438Z" fill="url(#paint33_linear_524_2)"/>
<path d="M940.151 211.417C955.455 196.355 988.993 189.96 1003.81 193.939C1000.39 206.728 993.064 217.811 980.364 224.774C956.92 237.563 926.963 239.694 926.312 240.405C942.918 237.137 972.875 236.284 989.156 247.51C966.363 271.524 928.266 275.929 908.24 266.835C908.24 266.835 906.449 261.435 906.775 260.583C907.263 259.73 940.151 211.417 940.151 211.417Z" fill="url(#paint34_linear_524_2)"/>
<path d="M1378.59 182.003C1377.78 189.818 1375.01 197.492 1371.76 204.881C1362.31 226.621 1348.15 247.652 1330.4 265.13C1322.1 273.371 1312.66 281.045 1301.59 286.444C1296.86 288.86 1291.65 290.707 1286.28 291.702C1283.68 292.27 1263.81 294.828 1262.51 297.812C1257.79 308.043 1267.07 322.537 1268.54 333.478C1269.19 338.026 1270 342.857 1273.26 346.551C1280.58 354.935 1298.49 351.951 1308.26 348.683C1315.59 346.409 1322.26 341.578 1324.54 335.042C1326.5 329.216 1324.7 322.679 1327.47 317.137C1333.82 304.349 1358.73 305.343 1364.59 292.27C1368.01 284.739 1362.96 276.213 1364.92 268.398C1367.04 259.162 1378.43 254.188 1385.27 246.941C1403.02 228.184 1395.2 200.76 1378.59 182.003Z" fill="url(#paint35_linear_524_2)"/>
<path d="M1306.63 282.323C1303.7 270.103 1313.31 258.593 1321.94 248.646C1332.36 236.568 1344.73 227.332 1353.03 213.975C1361.34 200.76 1366.38 180.866 1364.43 165.804C1360.69 136.958 1338.22 130.137 1338.22 130.137C1335.29 132.269 1352.38 147.615 1345.54 162.82C1341.64 171.772 1332.19 178.735 1333.82 188.255C1334.31 190.813 1335.78 193.086 1336.1 195.644C1336.92 201.754 1331.22 206.87 1325.52 210.422C1317.38 215.822 1308.42 220.085 1300.77 226.053C1293.12 232.021 1286.93 240.121 1286.93 249.073C1286.93 253.051 1288.24 257.03 1288.07 261.009C1288.07 266.409 1285.63 271.666 1286.44 277.066C1287.42 282.466 1294.26 287.581 1299.47 284.597" fill="url(#paint36_linear_524_2)"/>
<g clip-path="url(#clip0_524_2)">
<path d="M883.041 406.081L820.892 428.235C820.892 428.235 812.247 428.235 806.538 439.896C805.07 443.102 790.552 520.061 790.552 520.061C790.552 520.061 804.418 516.126 821.219 516.854C838.183 517.729 845.523 521.519 845.523 521.519V559.415H1012.72L1060.84 508.692L1019.57 423.717L944.047 404.04L883.041 406.081Z" fill="#D25B5C"/>
<path d="M911.097 269.071C909.792 270.529 908.161 271.84 906.53 272.861C906.204 272.569 905.769 272.472 905.225 272.569C893.48 273.444 879.615 272.715 872.764 283.064C869.828 287.582 869.013 293.121 869.828 298.222C870.644 303.761 872.927 310.611 876.19 315.421C876.407 315.81 876.679 316.101 877.005 316.296C878.31 318.19 881.899 318.336 882.715 315.713C884.019 311.486 882.551 307.696 881.899 303.761C882.878 303.615 884.019 303.032 884.346 301.72C886.303 295.598 890.218 290.497 895.927 286.562C896.906 285.25 896.743 283.647 895.764 282.626C902.778 279.857 909.466 277.088 913.218 270.529C914.033 269.363 912.076 267.905 911.097 269.071Z" fill="#3C3C3D"/>
<path d="M968.678 276.942C967.699 276.505 966.557 276.942 966.231 277.671C964.6 277.816 962.968 278.108 961.337 278.545C959.217 279.128 958.075 281.752 960.032 283.209C970.309 290.789 969.493 307.113 967.046 317.753C966.231 321.397 972.593 322.855 973.245 319.211C975.039 310.32 977.486 301.283 978.628 292.1C979.607 284.958 975.692 280.148 968.678 276.942Z" fill="#3C3C3D"/>
<path d="M886.629 410.162L888.424 362.5L883.367 346.175C883.367 346.175 875.863 347.779 873.906 335.244C872.275 325.332 872.438 323.875 872.438 323.875C872.438 323.875 871.133 316.296 881.573 316.296L892.502 287.728C892.502 287.728 903.267 280.148 933.607 280.148C963.947 280.148 968.025 286.124 968.025 286.124L972.103 309.737L971.125 316.004C971.125 316.004 977.813 316.587 977.813 322.563C977.813 328.393 975.366 337.722 975.366 337.722C975.366 337.722 974.387 343.697 969.657 342.386C969.657 342.386 965.742 356.524 964.763 361.48C963.784 366.29 963.132 385.383 963.132 385.383C963.132 385.383 955.465 392.671 942.253 392.671L950.082 413.514C950.082 413.514 954.487 445.289 926.92 445.289C899.516 445.289 886.629 410.162 886.629 410.162Z" fill="#F7E3BB"/>
<path d="M896.416 339.179C896.416 339.179 899.352 339.762 900.005 336.993C900.821 334.223 895.275 328.83 902.289 323C909.466 317.17 903.92 304.781 903.92 304.781C903.92 304.781 926.104 295.598 946.331 296.619C966.557 297.639 970.309 298.368 970.309 298.368C970.309 298.368 970.472 281.897 968.515 279.857C966.72 277.816 960.196 275.338 952.855 274.901C945.678 274.61 915.501 279.419 913.218 280.44C910.934 281.46 892.991 295.598 892.991 295.598L889.729 309.008L896.416 339.179Z" fill="url(#paint37_linear_524_2)"/>
<path d="M796.262 529.535C794.304 537.698 792.021 561.018 812.084 561.018C812.084 561.018 850.091 567.432 850.091 532.742C850.091 529.681 850.417 525.746 849.765 523.414C842.261 499.801 799.035 515.689 799.035 515.689C799.035 515.689 797.077 526.474 796.262 529.535Z" fill="#F7E3BB"/>
<path d="M916.154 414.972C910.118 415.409 881.899 414.097 874.232 412.348C873.743 411.619 874.232 410.745 874.722 410.016C878.201 404.769 881.627 399.522 884.998 394.275C894.948 395.003 905.388 394.129 915.175 394.858L916.154 414.972Z" fill="#D25B5C"/>
<path d="M886.466 395.295C894.785 403.894 916.969 423.717 917.132 425.029C917.622 434.794 932.792 444.706 932.792 444.706C932.792 444.706 930.019 447.767 925.778 448.204C922.842 448.495 913.87 445.435 908.65 443.54C905.877 449.37 902.615 454.763 899.026 448.787C889.729 435.232 884.509 425.32 873.906 412.202L886.466 395.295Z" fill="#D25B5C"/>
<path fill-rule="evenodd" clip-rule="evenodd" d="M980.749 260.034C980.912 267.613 978.954 275.193 973.571 281.314C972.43 282.626 970.472 282.043 969.657 280.731C969.439 280.829 969.276 280.926 969.167 281.023C959.38 284.812 948.125 282.48 937.848 282.189C932.302 281.897 926.593 282.043 920.884 282.626C917.513 284.375 914.088 286.173 910.608 288.019C907.672 294.724 903.757 300.846 898.7 306.53C897.069 308.425 894.296 307.405 893.317 305.51C892.991 305.898 892.665 306.238 892.338 306.53C891.36 307.55 890.055 307.696 889.076 307.404C888.641 308.279 888.206 309.202 887.771 310.174C886.303 313.089 881.409 311.34 881.409 308.571C881.246 300.7 881.409 290.205 889.239 285.25C889.783 285.055 890.272 284.812 890.707 284.521C889.892 284.084 889.239 283.209 889.892 282.335C891.305 280.488 892.773 278.691 894.296 276.942C894.187 276.845 894.187 276.699 894.296 276.504C897.395 263.095 911.423 256.973 925.615 254.933C933.281 253.767 940.948 254.35 948.614 255.37C953.345 255.953 958.075 256.828 962.642 257.702C967.21 258.722 972.103 259.743 976.508 257.848C978.465 256.973 980.749 257.994 980.749 260.034Z" fill="#3C3C3D"/>
<path d="M962.968 436.398C962.968 436.398 961.99 427.215 961.664 422.114C961.174 415.701 955.791 411.036 955.791 411.036C955.791 411.036 946.004 399.085 945.515 398.647L944.373 398.501C944.373 398.647 945.678 401.125 945.352 402.291C943.557 411.328 938.827 429.547 938.99 429.693C933.933 434.795 927.409 440.625 927.409 440.625C927.409 440.625 936.87 451.411 943.068 445.143C943.068 444.997 947.799 437.272 947.962 437.127C950.082 438.876 952.529 440.77 954.976 442.665C963.458 449.37 962.968 436.398 962.968 436.398Z" fill="#D25B5C"/>
<path d="M881.573 417.595C868.849 424.008 856.507 430.907 844.545 438.292C843.892 438.73 843.077 439.313 842.913 439.896C842.587 440.916 843.24 441.936 843.892 442.811C849.764 450.973 854.495 459.718 857.757 469.047C859.062 472.691 860.041 476.48 859.552 480.416C858.899 484.06 856.942 487.412 855.963 491.056C854.658 497.177 856.615 503.299 857.431 509.567C858.083 514.522 858.083 519.478 857.92 524.434C857.92 530.944 857.866 537.454 857.757 543.965C857.594 548.046 855.474 557.812 857.757 561.31C860.204 564.954 870.644 565.245 874.722 565.245C881.246 565.391 887.608 564.662 894.133 564.079C905.551 562.913 917.132 562.621 928.551 563.059C931.487 563.205 934.586 563.35 937.196 562.33C939.969 561.31 942.089 558.686 941.437 556.063C940.948 554.605 939.48 553.439 938.175 552.564C934.26 549.649 930.019 547.463 925.288 545.86C923.657 545.277 921.863 544.694 920.721 543.382C918.927 540.904 921.047 537.552 923.005 535.074C924.962 532.596 926.593 528.806 924.146 526.766C923.331 526.183 922.352 525.891 921.537 525.745C916.154 524.579 910.771 526.328 905.388 526.766C900.494 527.057 895.601 526.474 891.196 524.725C890.055 524.434 888.913 523.851 888.097 523.122C887.119 521.956 886.955 520.498 886.792 519.186C886.466 512.336 888.587 505.34 892.991 499.655C896.416 495.283 901.31 490.91 900.657 485.663C900.005 481.436 896.09 478.375 892.828 475.46C884.345 468.026 877.984 458.261 875.7 447.766C873.417 437.272 875.537 425.903 882.388 417.012" fill="url(#paint38_linear_524_2)"/>
<path d="M970.472 315.858L970.309 298.368C970.309 298.368 973.245 305.801 973.571 307.988C974.061 310.32 972.593 312.943 972.919 316.296L970.472 315.858Z" fill="#3C3C3D"/>
<path d="M881.573 316.296C881.573 316.296 884.346 315.713 885.814 318.628C887.445 321.834 889.729 341.365 889.729 341.365L896.416 339.179L894.948 321.105C894.948 321.105 906.856 314.692 906.367 314.109C905.877 313.38 903.43 298.222 903.43 298.222L881.409 307.113L881.573 316.296Z" fill="#3C3C3D"/>
<path d="M886.14 345.884C886.14 345.884 883.693 346.467 881.083 345.884C880.92 345.884 888.097 367.601 888.097 367.601L890.218 364.395L886.14 345.884Z" fill="#3C3C3D"/>
<path d="M897.558 373.14C897.558 373.14 906.04 392.671 942.253 392.671L945.352 400.979C945.352 400.979 896.253 407.538 897.558 373.14Z" fill="url(#paint39_linear_524_2)"/>
<path d="M886.792 340.782C886.901 340.685 887.01 340.539 887.118 340.345C888.587 337.722 886.629 335.827 885.65 333.203C884.346 329.122 885.814 322.709 879.941 321.397C879.724 321.397 879.561 321.348 879.452 321.251C877.495 322.855 877.658 325.041 877.658 325.041C877.658 325.041 878.147 333.64 880.594 338.45C882.225 341.074 884.835 341.22 886.792 340.782Z" fill="url(#paint40_linear_524_2)"/>
<path d="M961.827 280.731C949.267 278.691 936.543 278.691 924.146 281.315C919.253 282.189 913.217 283.064 909.139 285.687C904.409 288.748 902.125 295.599 899.515 299.971C898.047 302.595 902.615 305.073 903.92 302.303C906.203 298.368 908.161 291.517 912.239 288.894C916.154 286.124 923.168 285.25 928.061 284.375C938.99 282.335 950.408 281.898 961.501 282.772C962.969 282.918 963.295 280.877 961.827 280.731Z" fill="#3C3C3D"/>
<path d="M909.955 445.289C909.629 445.143 917.132 424.883 917.132 424.883C917.132 424.883 917.132 433.774 932.792 444.706C932.792 444.706 921.21 452.285 909.955 445.289Z" fill="url(#paint41_linear_524_2)"/>
</g>
<g clip-path="url(#clip1_524_2)">
<path d="M1292.06 264.612L1349.29 285.004C1349.29 285.004 1357.25 285.004 1362.51 295.736C1363.86 298.687 1377.23 369.52 1377.23 369.52C1377.23 369.52 1364.46 365.898 1348.99 366.568C1333.37 367.373 1326.61 370.861 1326.61 370.861V405.741H1172.63L1128.32 359.056L1166.32 280.845L1235.88 262.734L1292.06 264.612Z" fill="#647573"/>
<path d="M1266.22 138.509C1267.42 139.851 1268.92 141.058 1270.43 141.997C1270.73 141.729 1271.13 141.639 1271.63 141.729C1282.44 142.534 1295.21 141.863 1301.52 151.388C1304.22 155.546 1304.98 160.644 1304.22 165.34C1303.47 170.437 1301.37 176.742 1298.37 181.17C1298.17 181.527 1297.92 181.796 1297.61 181.974C1296.41 183.718 1293.11 183.853 1292.36 181.438C1291.16 177.547 1292.51 174.059 1293.11 170.437C1292.21 170.303 1291.16 169.767 1290.86 168.559C1289.05 162.925 1285.45 158.229 1280.19 154.607C1279.29 153.4 1279.44 151.924 1280.34 150.985C1273.88 148.436 1267.72 145.887 1264.27 139.851C1263.52 138.777 1265.32 137.436 1266.22 138.509Z" fill="#3C3C3D"/>
<path d="M1213.19 145.753C1214.09 145.351 1215.15 145.753 1215.45 146.424C1216.95 146.558 1218.45 146.826 1219.95 147.229C1221.91 147.766 1222.96 150.18 1221.15 151.522C1211.69 158.498 1212.44 173.523 1214.69 183.316C1215.45 186.67 1209.59 188.011 1208.99 184.657C1207.33 176.474 1205.08 168.157 1204.03 159.705C1203.13 153.132 1206.73 148.705 1213.19 145.753Z" fill="#3C3C3D"/>
<path d="M1288.75 268.369L1287.1 224.501L1291.76 209.476C1291.76 209.476 1298.67 210.951 1300.47 199.414C1301.97 190.292 1301.82 188.95 1301.82 188.95C1301.82 188.95 1303.02 181.974 1293.41 181.974L1283.34 155.68C1283.34 155.68 1273.43 148.705 1245.49 148.705C1217.55 148.705 1213.79 154.205 1213.79 154.205L1210.04 175.937L1210.94 181.706C1210.94 181.706 1204.78 182.243 1204.78 187.743C1204.78 193.109 1207.03 201.695 1207.03 201.695C1207.03 201.695 1207.93 207.195 1212.29 205.988C1212.29 205.988 1215.9 219 1216.8 223.562C1217.7 227.989 1218.3 245.563 1218.3 245.563C1218.3 245.563 1225.36 252.27 1237.53 252.27L1230.32 271.454C1230.32 271.454 1226.26 300.699 1251.65 300.699C1276.88 300.699 1288.75 268.369 1288.75 268.369Z" fill="#A08B7E"/>
<path d="M1279.74 203.036C1279.74 203.036 1277.04 203.573 1276.43 201.024C1275.68 198.475 1280.79 193.511 1274.33 188.145C1267.72 182.779 1272.83 171.376 1272.83 171.376C1272.83 171.376 1252.4 162.925 1233.77 163.864C1215.15 164.803 1211.69 165.474 1211.69 165.474C1211.69 165.474 1211.54 150.314 1213.34 148.436C1215 146.558 1221 144.277 1227.76 143.875C1234.37 143.607 1262.16 148.034 1264.27 148.973C1266.37 149.912 1282.89 162.925 1282.89 162.925L1285.9 175.267L1279.74 203.036Z" fill="url(#paint42_linear_524_2)"/>
<path d="M1371.97 378.24C1373.78 385.752 1375.88 407.217 1357.4 407.217C1357.4 407.217 1322.4 413.12 1322.4 381.191C1322.4 378.374 1322.1 374.752 1322.7 372.605C1329.61 350.873 1369.42 365.495 1369.42 365.495C1369.42 365.495 1371.22 375.423 1371.97 378.24Z" fill="#F7E3BB"/>
<path d="M1261.56 272.796C1267.12 273.198 1293.11 271.991 1300.17 270.381C1300.62 269.71 1300.17 268.905 1299.72 268.235C1296.51 263.405 1293.36 258.576 1290.25 253.746C1281.09 254.417 1271.48 253.612 1262.46 254.283L1261.56 272.796Z" fill="#647573"/>
<path d="M1288.9 254.685C1281.24 262.6 1260.81 280.845 1260.66 282.052C1260.21 291.04 1246.24 300.163 1246.24 300.163C1246.24 300.163 1248.79 302.98 1252.7 303.383C1255.4 303.651 1263.67 300.834 1268.47 299.09C1271.03 304.456 1274.03 309.419 1277.34 303.919C1285.9 291.443 1290.71 282.321 1300.47 270.247L1288.9 254.685Z" fill="#647573"/>
<path fill-rule="evenodd" clip-rule="evenodd" d="M1202.08 130.191C1201.93 137.167 1203.73 144.143 1208.69 149.778C1209.74 150.985 1211.54 150.449 1212.29 149.241C1212.49 149.331 1212.64 149.42 1212.74 149.509C1221.75 152.997 1232.12 150.851 1241.58 150.583C1246.69 150.314 1251.95 150.448 1257.21 150.985C1260.31 152.595 1263.47 154.249 1266.67 155.949C1269.37 162.12 1272.98 167.754 1277.64 172.986C1279.14 174.73 1281.69 173.791 1282.59 172.047C1282.89 172.405 1283.19 172.718 1283.49 172.986C1284.4 173.925 1285.6 174.059 1286.5 173.791C1286.9 174.596 1287.3 175.446 1287.7 176.34C1289.05 179.023 1293.56 177.413 1293.56 174.864C1293.71 167.62 1293.56 157.961 1286.35 153.4C1285.85 153.221 1285.4 152.997 1285 152.729C1285.75 152.327 1286.35 151.522 1285.75 150.717C1284.45 149.018 1283.09 147.363 1281.69 145.753C1281.79 145.664 1281.79 145.53 1281.69 145.351C1278.84 133.009 1265.92 127.374 1252.85 125.496C1245.79 124.423 1238.73 124.96 1231.67 125.899C1227.31 126.435 1222.96 127.24 1218.75 128.045C1214.54 128.984 1210.04 129.923 1205.98 128.179C1204.18 127.374 1202.08 128.313 1202.08 130.191Z" fill="#3C3C3D"/>
<path d="M1218.45 292.516C1218.45 292.516 1219.35 284.065 1219.65 279.369C1220.1 273.467 1225.06 269.174 1225.06 269.174C1225.06 269.174 1234.07 258.173 1234.52 257.771L1235.58 257.636C1235.58 257.771 1234.37 260.051 1234.67 261.124C1236.33 269.442 1240.68 286.211 1240.53 286.345C1245.19 291.041 1251.2 296.407 1251.2 296.407C1251.2 296.407 1242.49 306.334 1236.78 300.565C1236.78 300.431 1232.42 293.321 1232.27 293.187C1230.32 294.797 1228.06 296.541 1225.81 298.285C1218 304.456 1218.45 292.516 1218.45 292.516Z" fill="#647573"/>
<path d="M1293.41 275.21C1305.13 281.113 1316.49 287.463 1327.51 294.26C1328.11 294.663 1328.86 295.199 1329.01 295.736C1329.31 296.675 1328.71 297.614 1328.11 298.419C1322.7 305.931 1318.35 313.981 1315.34 322.566C1314.14 325.92 1313.24 329.408 1313.69 333.03C1314.29 336.384 1316.09 339.47 1316.99 342.823C1318.19 348.458 1316.39 354.092 1315.64 359.861C1315.04 364.422 1315.04 368.983 1315.19 373.544C1315.19 379.536 1315.24 385.529 1315.34 391.521C1315.49 395.277 1317.44 404.265 1315.34 407.485C1313.09 410.839 1303.47 411.107 1299.72 411.107C1293.71 411.241 1287.85 410.57 1281.84 410.034C1271.33 408.961 1260.66 408.692 1250.15 409.095C1247.44 409.229 1244.59 409.363 1242.18 408.424C1239.63 407.485 1237.68 405.07 1238.28 402.655C1238.73 401.314 1240.08 400.241 1241.28 399.436C1244.89 396.753 1248.79 394.74 1253.15 393.265C1254.65 392.728 1256.31 392.192 1257.36 390.984C1259.01 388.704 1257.06 385.618 1255.25 383.337C1253.45 381.057 1251.95 377.569 1254.2 375.691C1254.95 375.154 1255.85 374.886 1256.61 374.752C1261.56 373.678 1266.52 375.288 1271.48 375.691C1275.98 375.959 1280.49 375.422 1284.55 373.813C1285.6 373.544 1286.65 373.008 1287.4 372.337C1288.3 371.264 1288.45 369.922 1288.6 368.715C1288.9 362.41 1286.95 355.97 1282.89 350.738C1279.74 346.714 1275.23 342.689 1275.83 337.86C1276.43 333.969 1280.04 331.152 1283.04 328.469C1290.86 321.627 1296.71 312.639 1298.82 302.98C1300.92 293.321 1298.97 282.857 1292.66 274.674" fill="url(#paint43_linear_524_2)"/>
<path d="M1211.54 181.572L1211.69 165.474C1211.69 165.474 1208.99 172.315 1208.69 174.328C1208.24 176.474 1209.59 178.889 1209.29 181.974L1211.54 181.572Z" fill="#3C3C3D"/>
<path d="M1293.41 181.974C1293.41 181.974 1290.86 181.438 1289.5 184.121C1288 187.072 1285.9 205.049 1285.9 205.049L1279.74 203.036L1281.09 186.401C1281.09 186.401 1270.13 180.499 1270.58 179.962C1271.03 179.291 1273.28 165.339 1273.28 165.339L1293.56 173.523L1293.41 181.974Z" fill="#3C3C3D"/>
<path d="M1289.2 209.207C1289.2 209.207 1291.46 209.744 1293.86 209.207C1294.01 209.207 1287.4 229.196 1287.4 229.196L1285.45 226.245L1289.2 209.207Z" fill="#3C3C3D"/>
<path d="M1278.69 234.294C1278.69 234.294 1270.88 252.27 1237.53 252.27L1234.67 259.917C1234.67 259.917 1279.89 265.954 1278.69 234.294Z" fill="url(#paint44_linear_524_2)"/>
<path d="M1288.6 204.512C1288.5 204.423 1288.4 204.288 1288.3 204.11C1286.95 201.695 1288.75 199.951 1289.65 197.536C1290.86 193.78 1289.5 187.877 1294.91 186.67C1295.11 186.67 1295.26 186.625 1295.36 186.536C1297.16 188.011 1297.01 190.024 1297.01 190.024C1297.01 190.024 1296.56 197.939 1294.31 202.366C1292.81 204.78 1290.4 204.915 1288.6 204.512Z" fill="url(#paint45_linear_524_2)"/>
<path d="M1219.5 149.241C1231.07 147.363 1242.79 147.363 1254.2 149.778C1258.71 150.583 1264.27 151.388 1268.02 153.802C1272.38 156.62 1274.48 162.925 1276.88 166.949C1278.24 169.364 1274.03 171.645 1272.83 169.096C1270.73 165.474 1268.92 159.169 1265.17 156.754C1261.56 154.205 1255.1 153.4 1250.6 152.595C1240.53 150.717 1230.02 150.314 1219.8 151.119C1218.45 151.253 1218.15 149.375 1219.5 149.241Z" fill="#3C3C3D"/>
<path d="M1267.27 300.699C1267.57 300.565 1260.66 281.918 1260.66 281.918C1260.66 281.918 1260.66 290.101 1246.24 300.163C1246.24 300.163 1256.91 307.139 1267.27 300.699Z" fill="url(#paint46_linear_524_2)"/>
</g>
<g clip-path="url(#clip2_524_2)">
<path d="M1394.81 345.864L1386.86 323.834L1391.04 302.06C1391.04 302.06 1400.6 300.395 1401.68 296.553C1402.76 292.71 1408.01 278.365 1404.37 275.804C1400.6 273.37 1399.52 272.089 1399.52 272.089L1405.72 244.808C1405.72 244.808 1384.98 227.645 1357.63 227.645C1330.28 227.645 1328.4 243.527 1328.4 243.527L1325.16 262.227L1326.51 269.784C1326.51 269.784 1322.34 272.346 1322.34 274.395C1322.34 276.316 1328.4 293.735 1328.4 293.735L1328.94 314.228C1328.94 314.228 1335 326.396 1336.08 327.804C1337.15 329.341 1349.95 330.622 1349.95 330.622L1340.12 362.13C1340.12 362.13 1361.54 380.574 1364.77 379.037C1368 377.628 1394.81 345.864 1394.81 345.864Z" fill="#F7E3BB"/>
<path d="M1349.95 330.622L1369.89 327.805L1386.59 308.464C1386.59 308.464 1383.36 332.415 1372.04 337.154C1360.86 341.765 1347.26 339.588 1347.26 339.588L1349.95 330.622Z" fill="url(#paint47_linear_524_2)"/>
<path d="M1393.87 273.626C1392.65 275.291 1391.04 282.08 1390.1 286.947L1385.38 282.976L1384.57 271.065L1378.64 267.35L1379.32 250.316C1379.32 250.316 1371.24 240.453 1350.76 240.325C1330.15 240.197 1328.4 243.527 1328.4 243.527C1328.4 243.527 1321.93 241.99 1319.24 234.049C1317.22 228.286 1317.89 216.246 1327.72 212.02C1327.72 212.02 1343.49 217.527 1351.84 213.685C1366.52 207.024 1388.75 210.995 1393.6 220.345C1394.14 221.241 1396.56 227.902 1396.56 227.902C1396.56 227.902 1405.99 225.852 1409.49 229.951C1416.77 238.148 1414.88 245.705 1414.88 245.705L1402.08 274.267C1402.08 274.267 1396.16 270.552 1393.87 273.626Z" fill="#3C3C3D"/>
<path d="M1392.25 278.109L1387.4 296.297C1387.4 296.297 1391.04 299.883 1394.81 295.784C1398.58 291.558 1400.2 281.695 1400.2 281.695C1400.2 281.695 1401.14 277.213 1392.92 275.676L1392.25 278.109Z" fill="url(#paint48_linear_524_2)"/>
<path d="M1394.81 345.864C1394.81 345.864 1372.04 365.845 1356.96 362.13C1341.87 358.544 1343.35 351.756 1343.35 351.756C1343.35 351.756 1334.59 370.84 1346.99 373.017C1359.38 375.066 1394.54 360.465 1395.35 345.864" fill="#4A5DA5"/>
<path d="M1468.36 475.738C1468.36 475.738 1462.97 495.334 1463.24 497.127C1463.38 499.048 1456.51 519.541 1440.07 517.492C1423.77 515.315 1422.02 496.487 1422.02 496.487L1433.61 470.743C1433.61 470.743 1453.01 467.797 1468.36 475.738Z" fill="#F7E3BB"/>
<path d="M1472.54 481.245V396.584C1472.54 396.584 1472.4 388.899 1472 385.313C1471.6 381.726 1460.68 375.835 1460.68 375.835L1414.48 352.652L1394.68 347.017C1394.68 347.017 1372.04 371.736 1359.11 371.224C1346.18 370.712 1343.62 353.036 1343.62 353.036C1344.02 351.371 1344.29 350.091 1344.29 350.091C1342.41 349.45 1340.39 352.396 1340.39 352.396L1304.69 363.027L1289.2 398.249L1308.06 491.748L1279.09 588.961C1279.09 588.961 1257.54 612.144 1301.59 619.188C1307.25 620.085 1313.58 620.725 1320.45 620.981C1363.29 631.74 1432.8 615.346 1433.47 615.218C1434.28 614.961 1443.17 615.858 1441.29 605.099C1438.32 588.961 1439.94 518.773 1439.94 518.773L1433.34 472.023L1440.34 472.151C1451.93 472.92 1472.54 481.245 1472.54 481.245Z" fill="#4A5DA5"/>
<path d="M1474.15 479.836V473.048C1473.98 472.877 1473.84 472.706 1473.75 472.536C1470.92 469.59 1467.15 467.797 1463.65 465.747C1461.09 464.21 1458.39 462.674 1456.91 460.112C1454.22 454.989 1455.3 449.097 1455.83 443.846C1456.1 440.131 1456.51 436.417 1455.97 432.703C1455.7 431.294 1455.3 429.629 1454.76 428.348C1454.08 426.683 1453.01 426.171 1451.39 425.53C1446.54 423.737 1441.82 420.791 1441.96 415.412C1441.96 410.929 1445.33 407.086 1448.43 404.013C1451.66 400.939 1455.7 398.377 1458.26 394.663C1460.95 390.82 1454.76 392.87 1452.87 393.51C1449.5 394.406 1446.4 396.072 1443.17 397.096C1441.55 397.48 1439.26 398.249 1438.32 396.584C1437.38 395.047 1438.46 392.998 1439.13 391.717C1440.61 388.387 1442.9 385.569 1445.06 382.623C1445.69 381.769 1446.31 380.873 1446.94 379.933C1442.77 377.5 1438.19 375.579 1433.47 373.657C1428.22 371.608 1422.83 369.559 1417.58 367.125C1413.27 365.076 1406.8 362.514 1404.24 358.416C1404.06 358.074 1403.93 357.69 1403.84 357.263C1402.89 356.367 1401.82 355.47 1400.6 355.214C1398.04 354.83 1395.08 356.751 1393.06 357.903C1390.5 359.312 1386.19 364.436 1375.95 368.534C1361.67 374.042 1350.63 367.253 1348.34 365.46C1344.97 362.771 1342 359.184 1339.85 355.47C1339.76 355.812 1339.67 356.153 1339.58 356.495C1340.12 357.647 1340.39 358.8 1340.66 359.825C1341.87 363.795 1344.43 367.125 1347.39 369.943C1350.76 373.145 1354.94 376.475 1359.65 377.372C1376.49 380.574 1383.76 372.12 1383.49 372.889C1380.4 378.396 1377.43 383.263 1371.77 386.978C1366.25 390.692 1359.92 391.845 1353.32 392.357C1349.68 392.613 1345.64 392.741 1342.41 394.535C1342.23 394.62 1342.05 394.705 1341.87 394.791C1339.31 399.402 1339.31 404.781 1334.73 408.239C1327.86 413.619 1317.35 414.643 1309 416.18C1304.42 417.077 1299.7 417.589 1294.86 417.845L1309.54 490.339L1280.58 587.552C1280.58 587.552 1259.16 610.863 1303.21 617.907C1308.73 618.804 1315.06 619.316 1321.93 619.7C1364.9 630.459 1434.28 614.065 1435.09 613.809C1435.9 613.553 1444.65 614.577 1442.77 603.69C1439.8 587.552 1441.42 517.364 1441.42 517.364L1434.95 470.743L1441.82 470.871C1453.41 471.639 1474.15 479.836 1474.15 479.836Z" fill="url(#paint49_linear_524_2)"/>
</g>
<path d="M1171.58 237.463C1170.7 231.566 1168.56 226.022 1163.03 222.838C1158.63 220.361 1152.97 218.002 1150.08 212.459C1149.7 211.869 1149.7 211.279 1149.2 211.161C1147.44 206.798 1140.15 205.028 1136.13 203.613C1125.19 199.957 1113.51 198.424 1101.94 199.131C1079.69 200.311 1054.43 209.628 1042.87 228.735C1041.23 231.448 1039.85 234.278 1040.48 237.581C1041.23 240.647 1042.87 243.714 1044 246.662C1044 248.903 1043.87 251.144 1043.62 253.267C1043.12 257.985 1041.61 262.585 1041.48 267.42C1041.48 272.374 1043.24 275.559 1046.89 279.215C1049.9 282.281 1053.17 284.876 1057.32 286.409C1060.34 287.589 1063.48 284.286 1062.6 281.574C1060.97 277.092 1059.83 272.492 1058.83 267.774C1060.34 266.949 1061.47 265.062 1060.46 263.057C1059.33 260.698 1058.95 257.985 1057.95 255.626C1057.36 254.211 1056.78 252.795 1056.19 251.38C1055.85 250.122 1055.56 248.864 1055.31 247.606C1054.97 245.797 1054.72 243.989 1054.55 242.181C1066.12 234.396 1078.56 228.381 1092.77 226.376C1099.8 225.433 1106.97 225.433 1114.01 225.904C1118.16 226.258 1122.43 226.73 1126.33 228.381C1129.97 229.796 1133.24 232.273 1136.38 234.632C1139.77 237.463 1143.29 239.704 1144.68 236.165C1146.81 245.719 1147.69 251.144 1150.46 260.462C1150.46 260.934 1157.37 272.256 1157.5 276.266C1157.75 281.102 1165.42 282.399 1166.8 277.446C1170.32 264.472 1173.46 250.79 1171.58 237.463Z" fill="#3C3C3D"/>
<path d="M1081.08 368.38C1067.75 377.933 1054.18 387.723 1038.21 392.794C1022.38 397.866 1003.02 398.927 992.965 411.547C989.195 416.029 987.309 421.69 985.801 427.234C982.281 441.033 981.527 455.422 980.396 469.575C978.385 496.348 974.363 524.301 969.461 550.72C969.461 550.72 1244.48 550.72 1297.27 550.72C1299.66 550.72 1302.42 548.479 1304.81 548.008C1307.32 547.418 1309.46 545.885 1311.22 544.116C1319.39 536.095 1320.52 523.947 1320.14 512.979C1319.01 485.969 1311.22 459.55 1303.55 433.485C1300.03 421.769 1296.56 410.093 1293.12 398.455C1291.99 394.445 1291.11 389.964 1287.59 387.487C1280.93 382.651 1270.87 381 1261.45 380.764C1236.94 379.938 1217.2 363.544 1197.09 350.335C1191.69 346.796 1182.38 341.253 1179.12 343.494C1175.09 346.207 1175.47 357.057 1171.83 360.36C1169.06 362.837 1164.66 363.072 1160.77 363.308C1140.91 364.252 1121.3 367.79 1102.44 373.687C1099.93 374.513 1097.16 375.339 1094.53 374.867C1091.38 374.277 1089.12 371.8 1086.36 370.267C1083.59 368.734 1079.19 368.498 1077.81 371.211" fill="#3B3B65"/>
<path d="M970.341 548.362C970.173 549.148 970.005 549.934 969.838 550.721C969.838 550.721 970.005 550.721 970.341 550.721C970.341 549.934 970.341 549.148 970.341 548.362Z" fill="url(#paint50_linear_524_2)"/>
<path d="M1316.75 523.947C1316.37 516.399 1314.11 507.789 1308.83 501.774C1304.94 497.41 1298.65 496.585 1293.5 493.754C1287.34 490.334 1285.58 484.908 1286.71 478.421C1286.96 476.888 1287.34 474.883 1287.59 472.76C1286.71 472.642 1285.7 472.76 1285.2 472.76C1283.61 472.76 1282.06 472.839 1280.55 472.996C1277.28 473.35 1273.89 474.057 1270.75 475.001C1265.59 476.298 1260.69 478.421 1255.79 480.662C1260.69 480.19 1265.72 480.544 1269.49 482.431C1270.75 482.903 1269.99 484.436 1268.86 484.554C1265.72 484.79 1262.33 484.083 1259.06 484.083C1255.79 484.083 1252.4 484.436 1249.25 485.026C1242.47 486.323 1236.18 489.39 1231.28 494.108C1231.03 494.344 1230.65 493.99 1230.78 493.754C1234.92 487.975 1240.96 484.2 1248 482.195C1249.17 481.802 1250.47 481.488 1251.89 481.252C1254.53 478.657 1257.67 476.416 1261.07 474.529C1266.98 470.755 1273.39 467.924 1280.05 465.683C1281.89 465.133 1283.74 464.622 1285.58 464.15C1285.24 463.836 1284.91 463.521 1284.57 463.207C1279.42 459.668 1271 462.499 1265.22 462.617C1259.31 462.735 1252.52 460.848 1250.13 455.304C1248.62 451.766 1249.76 447.992 1252.02 445.043C1257.55 437.495 1266.6 432.187 1274.52 427.116C1278.41 424.521 1282.56 422.044 1286.08 419.096C1287.46 417.916 1288.85 416.737 1290.1 415.321C1290.48 414.968 1289.98 415.557 1290.48 414.85C1290.65 414.614 1290.82 414.378 1290.98 414.142C1291.07 414.063 1291.11 414.024 1291.11 414.024C1291.11 414.024 1291.11 413.906 1291.23 413.788C1291.23 413.788 1291.23 413.749 1291.23 413.67C1291.23 412.963 1291.11 412.255 1291.11 412.019C1291.03 411.705 1290.94 411.39 1290.86 411.076C1290.77 410.997 1290.73 410.918 1290.73 410.84C1290.73 410.84 1290.69 410.761 1290.61 410.604C1290.61 410.486 1290.48 410.368 1290.36 410.25C1290.23 410.132 1290.1 409.896 1289.98 409.896C1289.85 409.778 1289.6 409.66 1289.48 409.542C1289.39 409.542 1289.31 409.542 1289.22 409.542C1289.1 409.424 1288.6 409.424 1288.47 409.306C1288.22 409.306 1287.97 409.306 1287.72 409.306C1286.88 409.306 1286.08 409.346 1285.33 409.424C1285.33 409.424 1284.82 409.424 1284.32 409.542C1283.9 409.621 1283.44 409.739 1282.94 409.896C1281.93 410.053 1280.97 410.289 1280.05 410.604C1271.88 412.963 1264.21 417.091 1255.79 419.096C1252.65 419.921 1248.75 420.511 1245.73 418.86C1241.84 416.737 1241.46 412.609 1242.59 408.953C1242.34 406.594 1242.84 404.353 1242.34 402.112C1241.84 399.281 1239.2 398.102 1236.43 397.63C1234.42 397.394 1232.41 397.276 1230.4 397.04C1228.14 397.394 1225.75 397.512 1223.49 397.394C1215.19 396.804 1208.03 392.794 1203 386.779C1197.84 380.646 1196.96 373.923 1195.71 366.493C1194.83 361.657 1193.7 357.057 1191.56 352.811C1189.8 351.082 1188 349.43 1186.16 347.858C1184.14 346.207 1182.01 344.673 1179.87 343.258C1179.79 343.337 1179.66 343.415 1179.49 343.494C1175.47 346.207 1175.85 357.057 1172.2 360.36C1169.44 362.837 1165.04 363.073 1161.14 363.308C1141.28 364.252 1121.67 367.79 1102.82 373.687C1100.31 374.513 1097.54 375.339 1094.9 374.867C1091.76 374.277 1089.5 371.8 1086.73 370.267C1085.85 369.795 1084.72 369.324 1083.59 369.206C1081.2 375.575 1074.79 380.41 1071.15 386.307C1065.36 395.271 1069.39 407.655 1073.03 416.737C1074.41 420.275 1076.93 421.455 1079.94 423.813C1083.72 426.644 1085.6 430.418 1085.73 434.9C1085.73 439.736 1083.46 444.336 1083.84 449.053C1084.09 453.063 1087.49 456.484 1089.12 460.022C1091.01 463.914 1092.51 468.16 1091.26 472.406C1090 476.534 1085.98 479.954 1081.58 480.78C1073.03 482.431 1064.36 477.006 1057.7 472.642C1049.4 467.099 1044.37 459.196 1040.48 450.587C1038.59 446.341 1037.21 441.859 1035.45 437.495C1033.94 433.485 1031.8 430.3 1027.78 428.177C1023.01 425.701 1017.98 423.695 1013.2 421.219C1011.82 420.865 1010.56 420.275 1009.18 419.685C1008.17 419.292 1007.21 418.86 1006.29 418.388C1004.61 418.152 1002.98 417.956 1001.39 417.798C1005.28 420.747 1009.43 423.342 1013.33 426.526C1018.1 430.654 1026.78 439.618 1020.24 445.633C1017.22 448.582 1011.19 448.346 1007.04 449.171C1004.86 449.564 1002.69 449.997 1000.51 450.469C999.25 450.783 998.035 451.098 996.862 451.412C996.359 451.569 995.856 451.766 995.353 452.002C995.186 452.002 995.018 452.041 994.85 452.12C994.85 452.12 994.767 452.159 994.599 452.238C994.096 452.474 993.593 452.71 993.091 452.945C992.965 453.063 992.085 453.535 992.085 453.535C991.959 453.653 991.708 453.889 991.582 454.125C991.582 454.282 991.582 454.361 991.582 454.361C991.582 454.95 991.959 455.186 992.588 456.012C996.233 460.612 1002.64 462.971 1004.15 468.986C1005.91 476.416 1000.38 483.257 996.862 489.272C993.091 495.641 990.451 502.953 989.697 510.266C988.817 518.876 989.446 527.722 988.691 536.331C988.272 541.128 987.812 545.924 987.309 550.721H1297.65C1300.03 550.721 1302.8 548.48 1305.19 548.008C1307.7 547.418 1309.84 545.885 1311.72 544.116C1314.11 541.757 1315.87 539.044 1317.13 536.096C1317.25 531.968 1317 527.957 1316.75 523.947Z" fill="url(#paint51_linear_524_2)"/>
<path d="M1179.24 336.771C1176.6 334.058 1172.83 331.935 1169.44 329.812C1164.79 326.864 1160.39 333.94 1165.04 337.007C1166.55 337.872 1168.01 338.815 1169.44 339.838C1170.07 340.309 1170.82 340.781 1171.57 341.253C1171.32 341.568 1171.11 341.961 1170.95 342.432C1164.54 362.011 1158 381.59 1152.97 401.522C1150.58 411.429 1148.82 421.455 1146.69 431.48C1144.68 441.033 1141.03 449.879 1137.01 458.843C1135.88 453.889 1134.24 449.171 1132.61 444.453C1129.59 435.726 1126.07 427.234 1122.05 418.86C1113.76 401.522 1103.07 385.6 1091.13 370.267C1090.38 369.324 1089.25 368.616 1087.99 368.38C1089.37 362.601 1089.75 356.704 1088.99 350.924C1088.74 348.683 1087.23 346.796 1084.6 346.796C1082.46 346.796 1079.94 348.683 1080.2 350.924C1080.95 357.647 1080.32 364.37 1078.06 370.857C1075.67 377.226 1071.15 382.651 1068.76 389.138C1066.75 394.917 1066.87 401.876 1071.27 406.947C1075.17 411.547 1081.7 412.491 1086.1 416.501C1091.38 421.455 1089.87 427.706 1090.75 433.957C1091.51 439.736 1094.9 444.336 1099.3 448.346C1103.32 451.884 1108.23 455.186 1110.49 460.022C1111.74 462.853 1112.37 466.037 1113 469.104C1113.92 472.956 1114.8 476.849 1115.64 480.78C1119.41 497.607 1123.06 514.473 1126.58 531.378C1126.83 532.675 1127.71 533.619 1128.59 533.973C1129.59 535.27 1131.48 535.978 1132.99 535.742C1135.25 535.506 1136.51 533.737 1136.76 531.732C1138.77 516.871 1142.41 502.364 1146.56 487.857C1148.57 480.662 1150.58 473.35 1152.97 466.273C1155.11 459.786 1158.63 454.479 1162.27 448.699C1165.79 443.156 1167.8 437.377 1167.68 430.89C1167.68 425.347 1165.92 418.624 1169.94 414.024C1172.08 411.547 1174.59 409.66 1175.85 406.594C1177.23 403.173 1177.48 399.399 1177.86 395.743C1178.87 388.194 1179.74 380.646 1180.5 373.098C1181.25 364.449 1181.84 355.76 1182.26 347.032C1182.38 343.258 1182.13 339.72 1179.24 336.771Z" fill="#92C9C2"/>
<path fill-rule="evenodd" clip-rule="evenodd" d="M1168.56 371.093C1166.92 376.046 1161.27 384.302 1159.76 389.256C1158 394.681 1157.37 404.471 1157.37 404.471C1156.62 410.368 1151.09 433.367 1149.83 439.028C1148.57 444.571 1139.65 463.56 1138.39 464.74C1136.38 466.981 1135.12 465.683 1134.37 462.381C1133.49 458.017 1124.57 440.679 1122.55 435.843C1119.04 427.823 1112.75 417.326 1107.47 408.599C1103.37 401.836 1099.43 394.996 1095.66 388.076C1086.48 368.616 1085.85 357.529 1085.73 356.939C1085.6 354.462 1084.85 351.986 1083.84 349.745C1081.83 344.673 1090.38 342.55 1092.39 347.504C1093.65 350.57 1094.27 353.637 1094.53 356.821C1095.53 355.406 1097.29 354.816 1098.8 354.934C1100.43 352.457 1102.57 350.688 1106.21 350.924C1109.48 351.16 1112.37 351.278 1115.64 350.334C1118.78 349.509 1121.55 348.094 1124.31 346.442C1136 339.366 1145.93 328.633 1153.73 317.9C1155.24 315.659 1166.42 319.079 1168.56 321.085C1168.56 321.085 1171.83 332.761 1173.21 343.73C1174.59 354.109 1171.45 361.893 1168.56 371.093ZM1161.65 332.053C1160.56 330.166 1159.3 328.358 1157.87 326.628C1150.71 335.827 1142.16 344.319 1132.36 351.16C1127.08 354.934 1120.92 358.119 1114.38 359.062C1112.75 359.298 1110.99 359.534 1109.36 359.534C1108.6 359.455 1107.81 359.377 1106.97 359.298C1106.8 359.298 1106.68 359.298 1106.59 359.298C1106.21 360.36 1105.59 362.247 1104.83 364.016C1117.02 362.954 1128.84 360.242 1140.15 355.996C1145.31 353.991 1150.46 351.75 1153.22 347.032C1156.12 342.432 1157.37 337.243 1160.77 332.997C1161.02 332.604 1161.31 332.289 1161.65 332.053Z" fill="#F7E3BB"/>
<path d="M1178.49 288.65C1178.99 281.692 1182.26 273.907 1174.97 268.954C1172.33 267.067 1168.94 266.241 1165.79 266.713C1163.78 266.949 1162.15 268.128 1160.26 268.482C1157.75 268.954 1156.49 267.185 1155.61 265.18C1153.85 261.052 1153.1 256.334 1152.09 252.088C1150.96 247.488 1149.96 242.77 1148.82 238.053C1148.07 234.75 1146.69 231.566 1143.8 229.325C1140.65 227.084 1136.76 226.14 1132.99 225.315C1122.68 222.956 1112 222.012 1101.44 222.484C1096.16 222.72 1090.92 223.31 1085.73 224.253C1083.59 224.607 1081.33 224.961 1079.32 225.669C1079.07 225.669 1078.94 225.669 1078.69 225.786C1078.52 225.944 1078.39 226.062 1078.31 226.14C1077.31 226.612 1076.3 227.202 1075.55 227.909C1071.52 230.032 1066.87 231.094 1062.72 232.981C1060.46 234.16 1054.18 238.76 1050.66 249.493C1049.53 252.795 1048.14 278.271 1050.03 281.22C1052.42 284.876 1054.05 288.886 1055.18 293.132C1055.18 293.289 1055.23 293.447 1055.31 293.604C1056.19 300.209 1057.57 306.814 1059.58 313.3C1060.34 315.895 1061.22 318.372 1062.35 320.731C1063.23 323.562 1064.61 326.392 1066.37 328.987C1067.88 331.936 1069.51 334.884 1071.15 337.833C1072.24 339.956 1073.16 342.118 1073.91 344.32C1074.41 345.971 1091.51 364.134 1095.41 367.201C1098.55 369.559 1104.96 368.498 1108.98 368.616C1111.49 368.734 1113.88 368.498 1116.4 368.262C1117.9 368.144 1119.41 368.026 1120.8 367.554C1122.22 367.319 1123.6 367.083 1124.94 366.847C1130.6 365.785 1136.13 364.134 1141.53 362.129C1141.79 362.05 1142 361.932 1142.16 361.775C1148.07 360.714 1152.22 356.35 1154.86 351.042C1156.74 347.268 1158 343.14 1160.01 339.366C1161.9 335.946 1164.54 332.879 1166.42 329.459C1168.31 325.685 1168.68 321.792 1168.68 317.782C1168.56 315.541 1168.31 313.3 1168.56 311.177C1168.94 308.701 1171.32 308.937 1173.33 307.993C1181.13 304.219 1177.99 295.019 1178.49 288.65Z" fill="#F7E3BB"/>
<path d="M1150.46 236.047C1151.46 236.519 1152.47 236.991 1153.6 237.345C1154.61 237.699 1155.61 237.816 1156.62 238.052C1159.13 238.524 1160.51 235.576 1158.38 234.16C1157.5 233.688 1156.62 233.099 1155.74 232.627C1154.73 232.155 1153.6 231.801 1152.47 231.33C1151.21 230.858 1149.7 231.801 1149.33 232.863C1148.82 233.924 1149.2 235.458 1150.46 236.047Z" fill="#3C3C3D"/>
<path d="M1034.82 228.735C1032.18 234.75 1032.81 241.119 1035.45 247.016C1037.71 251.97 1042.49 256.688 1048.65 256.688C1050.66 256.688 1051.29 253.621 1049.15 253.267C1037.96 251.97 1034.32 238.052 1036.83 229.207C1037.21 228.027 1035.32 227.556 1034.82 228.735Z" fill="#3C3C3D"/>
<path d="M1035.45 228.617C1033.94 231.802 1038.47 233.453 1041.11 233.807C1044.12 234.042 1050.03 233.217 1050.41 229.679C1050.53 229.089 1049.78 228.499 1049.15 228.499C1047.26 228.499 1045.51 230.15 1043.62 230.504C1041.86 230.858 1037.21 230.858 1036.83 228.853C1036.71 228.263 1035.7 228.145 1035.45 228.617Z" fill="#3C3C3D"/>
<path d="M1035.83 231.919C1034.57 234.986 1034.95 238.17 1036.83 240.883C1037.46 241.945 1038.84 241.591 1039.35 240.647C1040.35 238.052 1039.97 235.576 1039.47 232.863C1039.22 231.448 1036.71 231.801 1036.71 233.335C1036.58 237.581 1036.71 241.827 1037.84 245.955C1038.34 247.606 1040.98 247.252 1040.98 245.601C1041.11 242.652 1040.6 239.822 1039.72 237.109C1039.22 235.812 1036.96 235.576 1036.71 237.109C1035.95 241.119 1036.08 247.252 1040.35 249.611C1041.23 250.201 1042.36 249.729 1042.61 248.785C1043.37 246.191 1042.49 243.95 1041.23 241.591C1040.35 240.058 1037.96 241.237 1038.34 242.77C1038.84 245.129 1039.85 247.134 1041.36 249.021C1042.49 250.437 1045 248.667 1043.87 247.252C1042.61 245.601 1041.86 243.95 1041.36 241.945C1040.44 242.338 1039.47 242.731 1038.47 243.124C1039.35 244.657 1040.1 246.191 1039.6 247.96C1040.35 247.645 1041.15 247.331 1041.99 247.016C1039.09 245.483 1039.22 240.529 1039.72 237.817C1038.72 237.817 1037.71 237.817 1036.71 237.817C1037.46 240.411 1037.84 242.888 1037.84 245.601C1038.84 245.444 1039.89 245.326 1040.98 245.247C1039.72 241.355 1039.6 237.345 1039.47 233.335C1038.55 233.413 1037.63 233.531 1036.71 233.689C1037.21 235.812 1037.46 237.817 1036.71 239.94C1037.54 239.861 1038.38 239.743 1039.22 239.586C1037.59 237.345 1037.21 235.104 1037.96 232.509C1038.47 231.094 1036.33 230.622 1035.83 231.919Z" fill="#3C3C3D"/>
<path d="M1053.8 219.653C1049.28 223.545 1042.87 229.561 1036.33 225.668C1035.58 225.315 1034.32 225.433 1034.07 226.258C1031.05 232.745 1031.68 243.36 1038.97 247.134C1040.1 247.606 1041.36 246.544 1040.73 245.483C1038.97 242.888 1036.96 240.647 1036.08 237.581C1035.2 234.278 1035.45 230.976 1036.96 227.909C1036.2 228.067 1035.41 228.263 1034.57 228.499C1042.74 233.453 1050.91 226.966 1055.18 220.715C1055.69 219.889 1054.55 219.064 1053.8 219.653Z" fill="#3C3C3D"/>
<path d="M1037.71 229.207C1038.72 230.858 1042.24 230.976 1044 230.858C1045.76 230.858 1046.01 228.735 1044.37 228.263C1042.74 227.674 1040.98 227.438 1039.22 227.438C1037.96 227.438 1037.33 228.617 1037.84 229.561C1038.84 231.212 1040.35 232.273 1042.36 232.745C1042.53 231.723 1042.66 230.701 1042.74 229.679C1041.15 229.679 1039.51 229.679 1037.84 229.679C1035.7 229.679 1035.7 232.745 1037.84 232.745C1038.93 232.824 1040.06 232.863 1041.23 232.863C1042.24 232.863 1043.12 232.863 1044 232.155C1044.5 231.684 1044.63 230.858 1044.25 230.268C1044.25 230.19 1044.21 230.15 1044.12 230.15C1043.49 228.617 1041.11 229.443 1041.11 230.858C1041.11 230.937 1041.11 231.015 1041.11 231.094C1041.36 230.622 1041.65 230.15 1041.99 229.679C1041.73 229.797 1040.35 229.679 1040.1 229.679C1039.35 229.679 1038.59 229.679 1037.84 229.679C1037.84 230.701 1037.84 231.723 1037.84 232.745C1039.51 232.745 1041.15 232.745 1042.74 232.745C1044.5 232.745 1045 230.15 1043.24 229.797C1041.99 229.561 1041.11 229.089 1040.48 228.145C1040.06 228.853 1039.64 229.561 1039.22 230.268C1040.73 230.268 1042.11 230.504 1043.62 230.858C1043.62 229.993 1043.62 229.128 1043.62 228.263C1042.7 228.342 1041.73 228.342 1040.73 228.263C1039.85 228.145 1039.09 227.792 1038.21 228.027C1037.71 228.263 1037.46 228.735 1037.71 229.207Z" fill="#3C3C3D"/>
<path d="M1094.15 362.837C1095.28 363.898 1106.47 373.569 1106.47 373.569C1106.47 373.569 1112.12 380.174 1129.97 375.221C1144.68 371.093 1157.25 361.657 1161.52 351.514C1165.67 341.371 1166.8 321.674 1166.8 321.674C1166.8 321.674 1157.12 350.688 1152.72 355.052C1148.2 359.416 1127.96 363.072 1127.96 363.072L1104.46 366.611L1094.15 362.837Z" fill="url(#paint52_linear_524_2)"/>
<path d="M1161.77 278.389L1163.53 299.737C1163.53 299.737 1170.57 301.27 1171.2 297.968C1171.83 294.665 1170.07 293.604 1171.32 289.948C1172.71 286.173 1177.11 281.692 1173.08 276.502C1169.19 271.43 1162.02 271.312 1161.77 278.389Z" fill="url(#paint53_linear_524_2)"/>
<path d="M1055.18 248.785C1055.18 248.785 1053.42 257.631 1053.3 261.405C1052.8 270.015 1095.03 249.965 1120.67 257.631C1146.19 265.415 1141.53 283.933 1159.89 286.173C1167.8 287.117 1129.97 233.335 1129.97 233.335L1061.22 245.719L1055.18 248.785Z" fill="url(#paint54_linear_524_2)"/>
<path fill-rule="evenodd" clip-rule="evenodd" d="M1167.05 263.528C1167.43 264.118 1167.93 266.713 1166.92 266.595C1165.17 266.241 1161.14 269.19 1161.39 274.025C1161.65 277.8 1161.65 281.81 1161.39 285.584C1161.39 285.741 1161.35 285.859 1161.27 285.938C1161.14 286.174 1160.89 286.291 1160.64 286.409C1160.26 286.527 1159.76 286.409 1159.51 286.056C1156.62 281.692 1154.36 277.092 1152.47 272.256C1150.84 271.784 1149.08 271.195 1147.69 270.133C1145.56 268.6 1144.93 266.005 1144.17 263.646C1142.54 257.867 1140.4 252.324 1138.52 246.662C1136.51 243.95 1132.23 241.001 1128.84 239.114C1125.32 237.109 1122.43 236.991 1120.17 237.935C1101.06 245.955 1063.23 237.463 1049.78 255.508C1049.53 255.862 1049.02 255.862 1048.65 255.862C1047.89 258.693 1043.62 259.4 1042.74 256.216C1041.73 252.796 1040.73 249.139 1039.6 245.719C1038.47 242.534 1036.71 239.35 1037.71 235.93C1039.35 230.504 1047.14 227.084 1052.04 224.725C1064.23 219.182 1077.56 216.941 1090.88 215.407C1093.39 215.172 1095.41 217.412 1095.78 219.535C1095.78 219.771 1095.78 220.007 1095.78 220.243C1102.7 218.828 1109.99 218.946 1117.02 219.064C1118.78 219.064 1120.17 219.771 1120.92 220.715C1121.42 220.715 1121.93 220.715 1122.43 220.715C1124.06 219.064 1126.7 218.12 1129.22 219.3C1130.81 220.007 1132.4 220.715 1133.99 221.423C1135.12 222.012 1135.88 222.838 1136.26 223.781C1138.02 222.72 1140.4 222.602 1142.41 224.371C1143 224.843 1143.55 225.315 1144.05 225.786C1144.55 226.337 1145.1 226.848 1145.68 227.32C1146.81 226.376 1148.82 227.792 1148.57 229.325C1148.57 229.482 1148.53 229.639 1148.45 229.797C1149.37 230.661 1150.25 231.487 1151.09 232.273C1152.09 233.099 1152.47 234.043 1152.6 234.986C1152.97 235.34 1153.1 235.812 1153.1 236.283C1153.1 236.441 1153.1 236.559 1153.1 236.637C1153.01 237.345 1152.76 237.895 1152.34 238.288C1152.34 239.547 1152.34 240.844 1152.34 242.181C1153.01 242.495 1153.6 243.006 1154.1 243.714C1155.86 246.191 1157.75 249.611 1158.13 252.913C1158.55 253.542 1159.05 254.172 1159.63 254.801C1160.77 256.098 1160.89 257.867 1160.39 259.282C1162.15 257.867 1163.53 256.688 1165.92 256.806C1167.55 256.806 1168.94 257.985 1168.94 259.518C1168.94 261.17 1168.06 262.467 1167.05 263.528ZM1051.16 235.222C1049.65 236.048 1046.64 237.345 1046.51 238.76C1046.51 239.468 1046.76 240.294 1047.14 241.119C1048.4 239.075 1049.74 237.109 1051.16 235.222Z" fill="#3C3C3D"/>
<path d="M1290.73 532.203C1291.11 530.08 1290.48 527.839 1289.1 526.07C1287.84 524.537 1286.21 523.593 1284.32 523.122C1283.32 522.768 1282.19 522.65 1281.05 522.296C1278.92 521.706 1278.16 520.409 1277.03 518.876C1273.39 514.158 1266.98 515.573 1261.7 516.163C1255.66 516.792 1249.67 517.618 1243.72 518.64C1244.85 515.219 1241.71 511.209 1237.19 512.271C1233.54 513.096 1230.9 516.163 1227.76 517.932C1224.49 519.701 1220.47 519.701 1217.33 521.942C1216.57 522.532 1215.94 523.122 1215.44 523.947C1214.06 525.363 1212.93 526.896 1211.17 528.075C1210.75 528.311 1210.37 528.508 1210.04 528.665C1210.04 528.744 1210.04 528.783 1210.04 528.783C1206.27 530.198 1202.62 531.849 1199.1 533.619C1195.96 535.388 1194.07 537.039 1192.44 540.105C1190.43 543.644 1188.8 547.182 1187.16 550.956C1187.16 550.956 1221.73 550.484 1228.51 550.602C1235.18 550.72 1283.32 550.72 1283.32 550.72C1284.82 550.131 1286.84 548.597 1287.59 547.182C1288.72 544.823 1287.34 542.228 1287.72 539.87C1287.97 537.511 1290.36 534.68 1290.73 532.203Z" fill="#F7E3BB"/>
<path d="M1097.54 549.305C1097.54 549.305 1097.54 549.266 1097.54 549.187C1097.67 543.172 1091.01 539.516 1086.23 536.331C1079.57 531.85 1072.03 525.834 1063.73 524.065C1060.84 523.476 1057.7 523.593 1055.31 525.481C1052.8 527.368 1052.42 530.198 1052.42 533.029C1052.42 534.798 1052.8 536.803 1052.17 538.572C1051.54 540.577 1049.53 541.521 1047.77 542.7C1045.25 544.352 1043.12 546.239 1042.99 549.305C1042.99 550.131 1043.62 550.72 1044.5 550.72H1097.42C1097.42 550.603 1097.42 550.367 1097.54 550.249C1097.63 549.934 1097.63 549.62 1097.54 549.305Z" fill="#F7E3BB"/>
<path d="M1167.3 372.39C1163.78 383.949 1153.6 393.384 1141.28 396.804C1138.02 397.63 1134.62 398.102 1131.86 399.989C1129.09 401.758 1127.33 405.532 1129.22 408.245C1129.97 409.306 1131.23 410.014 1132.36 410.84C1137.01 414.378 1139.52 420.393 1138.39 425.936C1137.76 428.767 1136.38 431.48 1135.12 434.192C1130.98 444.1 1131.48 457.427 1134.87 467.688C1138.02 466.155 1141.03 460.73 1142.41 457.663C1144.43 452.945 1146.06 449.171 1148.45 444.572C1150.84 439.854 1151.97 432.305 1152.72 427.116C1153.85 418.27 1153.35 411.076 1155.24 402.466C1157.12 393.856 1160.26 385.246 1165.92 378.169" fill="url(#paint55_linear_524_2)"/>
<path d="M1113.88 368.616C1138.14 368.616 1138.14 333.233 1113.88 333.233C1089.62 333.233 1089.5 368.616 1113.88 368.616Z" fill="#F7E3BB"/>
<path d="M1083.09 407.891C1080.57 403.881 1082.58 399.163 1080.57 395.035C1079.07 391.969 1075.29 393.384 1074.16 395.979C1072.78 399.635 1075.04 402.937 1077.43 405.532C1080.07 408.363 1083.46 411.901 1084.85 415.675C1085.6 416.068 1086.27 416.58 1086.86 417.209C1086.86 414.142 1085.22 410.958 1083.21 408.127C1083.21 408.048 1083.17 407.97 1083.09 407.891Z" fill="url(#paint56_linear_524_2)"/>
<path d="M1169.31 405.886C1169.82 404.235 1170.57 402.584 1170.82 400.815C1171.57 397.394 1170.07 390.553 1164.91 390.907C1159.51 391.379 1161.52 399.753 1162.65 402.584C1163.78 405.532 1165.04 408.245 1165.92 411.194C1166.55 413.434 1166.8 415.793 1167.93 417.798C1168.18 417.248 1168.47 416.737 1168.81 416.265C1168.98 415.793 1169.23 415.322 1169.56 414.85C1169.23 413.513 1168.89 412.137 1168.56 410.722C1168.56 410.486 1168.56 410.25 1168.56 410.014C1168.56 408.599 1168.94 407.419 1169.31 406.122C1169.31 406.043 1169.31 405.965 1169.31 405.886Z" fill="url(#paint57_linear_524_2)"/>
<path fill-rule="evenodd" clip-rule="evenodd" d="M1162.78 383.713C1154.98 402.466 1156.49 423.342 1150.46 442.566C1149.08 447.048 1147.44 451.412 1145.18 455.54C1142.92 459.668 1139.52 463.206 1137.51 467.334C1136.13 470.165 1136.38 473.35 1136.38 476.416C1136.38 479.247 1136.46 482.077 1136.63 484.908C1136.8 488.997 1137.01 493.085 1137.26 497.174C1138.01 499.533 1137.89 502.246 1136.88 504.84C1136.13 506.728 1135 508.261 1133.87 510.03C1131.98 513.097 1132.11 516.045 1132.61 519.465C1133.45 524.812 1134.29 530.12 1135.12 535.388C1134.62 535.545 1134.12 535.702 1133.62 535.86C1133.53 535.938 1133.41 535.978 1133.24 535.978C1133.24 535.978 1133.24 535.938 1133.24 535.86C1133.07 535.938 1132.86 535.978 1132.61 535.978C1130.1 536.213 1128.46 534.562 1127.58 532.439C1127.33 532.125 1127.08 531.81 1126.83 531.496C1126.2 530.434 1125.82 528.783 1125.82 527.368C1125.32 525.599 1124.94 523.711 1124.69 521.942C1123.94 518.64 1123.56 515.22 1123.43 511.799C1123.18 508.025 1123.81 504.251 1122.93 500.477C1122.05 497.056 1120.42 493.754 1119.92 490.216C1119.41 486.677 1119.41 483.257 1119.29 479.719C1119.04 473.585 1117.9 467.217 1112.75 463.089C1112.58 463.01 1112.5 462.892 1112.5 462.735C1110.49 461.319 1108.48 459.904 1106.59 458.489C1098.92 452.71 1094.4 445.987 1091.38 437.141L1091.01 435.372C1090.75 434.782 1092.51 435.136 1092.77 435.726C1094.9 440.325 1098.55 445.869 1101.94 449.643C1105.46 453.535 1107.35 455.658 1111.87 459.196C1115.52 462.027 1119.04 464.858 1121.8 468.514C1124.57 472.288 1126.2 476.534 1127.58 480.78C1127.92 481.724 1128.25 482.628 1128.59 483.493C1128.71 479.483 1129.34 475.237 1128.46 471.698C1127.33 466.863 1124.69 462.381 1120.92 458.961C1117.9 456.13 1114.26 453.771 1111.12 451.058C1108.23 448.581 1105.71 445.633 1104.2 442.095C1102.32 437.613 1102.44 432.777 1103.07 427.941C1104.2 419.449 1107.35 408.953 1100.81 401.522C1100.18 400.932 1101.06 400.107 1101.69 400.696C1103.83 402.466 1105.21 404.589 1106.09 406.947C1106.59 407.891 1107.14 408.795 1107.72 409.66C1108.35 409.778 1108.98 410.25 1109.11 411.075C1109.11 411.311 1109.15 411.587 1109.23 411.901C1111.12 414.732 1113 417.444 1114.89 420.275C1118.28 425.465 1121.8 430.772 1124.44 436.433C1127.08 442.213 1128.71 448.464 1131.23 454.361C1132.86 458.135 1134.37 462.145 1135.38 466.273C1135.96 465.015 1136.72 463.757 1137.64 462.499C1140.03 459.432 1142.16 456.248 1143.92 452.827C1147.57 445.515 1149.7 437.731 1151.21 429.946C1154.23 414.378 1153.98 397.63 1161.77 383.241C1162.02 382.651 1163.03 383.123 1162.78 383.713ZM1121.93 472.642C1121.76 472.327 1121.55 472.013 1121.3 471.698C1121.38 471.777 1121.42 471.856 1121.42 471.934C1121.59 472.17 1121.76 472.406 1121.93 472.642ZM1123.18 445.751C1123.43 446.301 1123.64 446.852 1123.81 447.402C1123.56 446.694 1123.31 445.987 1123.06 445.279C1123.06 445.436 1123.1 445.594 1123.18 445.751Z" fill="url(#paint58_linear_524_2)"/>
<defs>
<linearGradient id="paint0_linear_524_2" x1="615.836" y1="391.028" x2="804.257" y2="485.022" gradientUnits="userSpaceOnUse">
<stop stop-color="#84A47F"/>
<stop offset="1" stop-color="#3B3B64"/>
</linearGradient>
<linearGradient id="paint1_linear_524_2" x1="648.723" y1="234.437" x2="697.593" y2="207.321" gradientUnits="userSpaceOnUse">
<stop stop-color="#84A47F"/>
<stop offset="1" stop-color="#3B3B64"/>
</linearGradient>
<linearGradient id="paint2_linear_524_2" x1="689.914" y1="285.023" x2="736.777" y2="258.969" gradientUnits="userSpaceOnUse">
<stop stop-color="#84A47F"/>
<stop offset="1" stop-color="#3B3B64"/>
</linearGradient>
<linearGradient id="paint3_linear_524_2" x1="713.195" y1="328.505" x2="756.075" y2="304.733" gradientUnits="userSpaceOnUse">
<stop stop-color="#84A47F"/>
<stop offset="1" stop-color="#3B3B64"/>
</linearGradient>
<linearGradient id="paint4_linear_524_2" x1="658.003" y1="313.869" x2="691.215" y2="295.547" gradientUnits="userSpaceOnUse">
<stop stop-color="#84A47F"/>
<stop offset="1" stop-color="#3B3B64"/>
</linearGradient>
<linearGradient id="paint5_linear_524_2" x1="659.632" y1="351.809" x2="704.35" y2="326.983" gradientUnits="userSpaceOnUse">
<stop stop-color="#84A47F"/>
<stop offset="1" stop-color="#3B3B64"/>
</linearGradient>
<linearGradient id="paint6_linear_524_2" x1="720.848" y1="454.972" x2="799.864" y2="411.29" gradientUnits="userSpaceOnUse">
<stop stop-color="#84A47F"/>
<stop offset="1" stop-color="#3B3B64"/>
</linearGradient>
<linearGradient id="paint7_linear_524_2" x1="730.29" y1="349.535" x2="757.957" y2="334.214" gradientUnits="userSpaceOnUse">
<stop stop-color="#84A47F"/>
<stop offset="1" stop-color="#3B3B64"/>
</linearGradient>
<linearGradient id="paint8_linear_524_2" x1="758.619" y1="367.724" x2="782.134" y2="354.693" gradientUnits="userSpaceOnUse">
<stop stop-color="#84A47F"/>
<stop offset="1" stop-color="#3B3B64"/>
</linearGradient>
<linearGradient id="paint9_linear_524_2" x1="753.246" y1="480.265" x2="819.473" y2="443.469" gradientUnits="userSpaceOnUse">
<stop stop-color="#84A47F"/>
<stop offset="1" stop-color="#3B3B64"/>
</linearGradient>
<linearGradient id="paint10_linear_524_2" x1="654.91" y1="287.013" x2="683.831" y2="271.149" gradientUnits="userSpaceOnUse">
<stop stop-color="#84A47F"/>
<stop offset="1" stop-color="#3B3B64"/>
</linearGradient>
<linearGradient id="paint11_linear_524_2" x1="544.2" y1="459.487" x2="701.118" y2="372.498" gradientUnits="userSpaceOnUse">
<stop stop-color="#84A47F"/>
<stop offset="1" stop-color="#3B3B64"/>
</linearGradient>
<linearGradient id="paint12_linear_524_2" x1="579.041" y1="481.429" x2="749.999" y2="539.991" gradientUnits="userSpaceOnUse">
<stop stop-color="#84A47F"/>
<stop offset="1" stop-color="#3B3B64"/>
</linearGradient>
<linearGradient id="paint13_linear_524_2" x1="665.655" y1="385.912" x2="746.037" y2="341.36" gradientUnits="userSpaceOnUse">
<stop stop-color="#84A47F"/>
<stop offset="1" stop-color="#3B3B64"/>
</linearGradient>
<linearGradient id="paint14_linear_524_2" x1="788.25" y1="384.065" x2="812.546" y2="370.675" gradientUnits="userSpaceOnUse">
<stop stop-color="#84A47F"/>
<stop offset="1" stop-color="#3B3B64"/>
</linearGradient>
<linearGradient id="paint15_linear_524_2" x1="808.438" y1="416.179" x2="837.331" y2="400.155" gradientUnits="userSpaceOnUse">
<stop stop-color="#84A47F"/>
<stop offset="1" stop-color="#3B3B64"/>
</linearGradient>
<linearGradient id="paint16_linear_524_2" x1="838.07" y1="339.873" x2="764.256" y2="517.638" gradientUnits="userSpaceOnUse">
<stop stop-color="#84A47F"/>
<stop offset="1" stop-color="#3B3B64"/>
</linearGradient>
<linearGradient id="paint17_linear_524_2" x1="787.762" y1="502.858" x2="834.96" y2="476.788" gradientUnits="userSpaceOnUse">
<stop stop-color="#84A47F"/>
<stop offset="1" stop-color="#3B3B64"/>
</linearGradient>
<linearGradient id="paint18_linear_524_2" x1="878.772" y1="49" x2="944.058" y2="49" gradientUnits="userSpaceOnUse">
<stop stop-color="#84A47F"/>
<stop offset="1" stop-color="#3B3B64"/>
</linearGradient>
<linearGradient id="paint19_linear_524_2" x1="923.87" y1="345.983" x2="824.468" y2="505.46" gradientUnits="userSpaceOnUse">
<stop stop-color="#84A47F"/>
<stop offset="1" stop-color="#3B3B64"/>
</linearGradient>
<linearGradient id="paint20_linear_524_2" x1="824.882" y1="462.076" x2="864.223" y2="440.243" gradientUnits="userSpaceOnUse">
<stop stop-color="#84A47F"/>
<stop offset="1" stop-color="#3B3B64"/>
</linearGradient>
<linearGradient id="paint21_linear_524_2" x1="883.656" y1="107.26" x2="934.127" y2="107.26" gradientUnits="userSpaceOnUse">
<stop stop-color="#84A47F"/>
<stop offset="1" stop-color="#3B3B64"/>
</linearGradient>
<linearGradient id="paint22_linear_524_2" x1="885.772" y1="154.862" x2="933.475" y2="154.862" gradientUnits="userSpaceOnUse">
<stop stop-color="#84A47F"/>
<stop offset="1" stop-color="#3B3B64"/>
</linearGradient>
<linearGradient id="paint23_linear_524_2" x1="938.848" y1="125.59" x2="978.248" y2="125.59" gradientUnits="userSpaceOnUse">
<stop stop-color="#84A47F"/>
<stop offset="1" stop-color="#3B3B64"/>
</linearGradient>
<linearGradient id="paint24_linear_524_2" x1="939.825" y1="159.694" x2="993.064" y2="159.694" gradientUnits="userSpaceOnUse">
<stop stop-color="#84A47F"/>
<stop offset="1" stop-color="#3B3B64"/>
</linearGradient>
<linearGradient id="paint25_linear_524_2" x1="890.332" y1="271.24" x2="980.69" y2="271.24" gradientUnits="userSpaceOnUse">
<stop stop-color="#84A47F"/>
<stop offset="1" stop-color="#3B3B64"/>
</linearGradient>
<linearGradient id="paint26_linear_524_2" x1="895.378" y1="180.156" x2="926.801" y2="180.156" gradientUnits="userSpaceOnUse">
<stop stop-color="#84A47F"/>
<stop offset="1" stop-color="#3B3B64"/>
</linearGradient>
<linearGradient id="paint27_linear_524_2" x1="881.539" y1="206.159" x2="908.891" y2="206.159" gradientUnits="userSpaceOnUse">
<stop stop-color="#84A47F"/>
<stop offset="1" stop-color="#3B3B64"/>
</linearGradient>
<linearGradient id="paint28_linear_524_2" x1="861.352" y1="230.174" x2="887.238" y2="230.174" gradientUnits="userSpaceOnUse">
<stop stop-color="#84A47F"/>
<stop offset="1" stop-color="#3B3B64"/>
</linearGradient>
<linearGradient id="paint29_linear_524_2" x1="851.746" y1="265.414" x2="882.842" y2="265.414" gradientUnits="userSpaceOnUse">
<stop stop-color="#84A47F"/>
<stop offset="1" stop-color="#3B3B64"/>
</linearGradient>
<linearGradient id="paint30_linear_524_2" x1="846.047" y1="311.453" x2="888.703" y2="311.453" gradientUnits="userSpaceOnUse">
<stop stop-color="#84A47F"/>
<stop offset="1" stop-color="#3B3B64"/>
</linearGradient>
<linearGradient id="paint31_linear_524_2" x1="886.261" y1="303.78" x2="962.944" y2="303.78" gradientUnits="userSpaceOnUse">
<stop stop-color="#84A47F"/>
<stop offset="1" stop-color="#3B3B64"/>
</linearGradient>
<linearGradient id="paint32_linear_524_2" x1="890.494" y1="335.326" x2="944.709" y2="335.326" gradientUnits="userSpaceOnUse">
<stop stop-color="#84A47F"/>
<stop offset="1" stop-color="#3B3B64"/>
</linearGradient>
<linearGradient id="paint33_linear_524_2" x1="934.941" y1="100.439" x2="969.456" y2="100.439" gradientUnits="userSpaceOnUse">
<stop stop-color="#84A47F"/>
<stop offset="1" stop-color="#3B3B64"/>
</linearGradient>
<linearGradient id="paint34_linear_524_2" x1="906.775" y1="192.802" x2="1003.81" y2="192.802" gradientUnits="userSpaceOnUse">
<stop stop-color="#84A47F"/>
<stop offset="1" stop-color="#3B3B64"/>
</linearGradient>
<linearGradient id="paint35_linear_524_2" x1="1411.32" y1="192.944" x2="1351.09" y2="374.325" gradientUnits="userSpaceOnUse">
<stop stop-color="#84A47F"/>
<stop offset="1" stop-color="#3B3B64"/>
</linearGradient>
<linearGradient id="paint36_linear_524_2" x1="1322.75" y1="126.585" x2="1286.99" y2="283.573" gradientUnits="userSpaceOnUse">
<stop stop-color="#84A47F"/>
<stop offset="1" stop-color="#3B3B64"/>
</linearGradient>
<linearGradient id="paint37_linear_524_2" x1="972.429" y1="263.095" x2="966.16" y2="322.291" gradientUnits="userSpaceOnUse">
<stop stop-color="#F7E2BB"/>
<stop offset="1" stop-color="#D2B795"/>
</linearGradient>
<linearGradient id="paint38_linear_524_2" x1="1053.5" y1="402.728" x2="1039.65" y2="531.654" gradientUnits="userSpaceOnUse">
<stop stop-color="#D25C5C"/>
<stop offset="1" stop-color="#743131"/>
</linearGradient>
<linearGradient id="paint39_linear_524_2" x1="897.558" y1="373.14" x2="945.352" y2="373.14" gradientUnits="userSpaceOnUse">
<stop stop-color="#F7E2BB"/>
<stop offset="1" stop-color="#D2B795"/>
</linearGradient>
<linearGradient id="paint40_linear_524_2" x1="901.147" y1="314.838" x2="905.601" y2="343.43" gradientUnits="userSpaceOnUse">
<stop stop-color="#F7E2BB"/>
<stop offset="1" stop-color="#D2B795"/>
</linearGradient>
<linearGradient id="paint41_linear_524_2" x1="909.955" y1="424.883" x2="932.792" y2="424.883" gradientUnits="userSpaceOnUse">
<stop stop-color="#D25C5C"/>
<stop offset="1" stop-color="#743131"/>
</linearGradient>
<linearGradient id="paint42_linear_524_2" x1="1209.74" y1="133.009" x2="1215.5" y2="187.493" gradientUnits="userSpaceOnUse">
<stop stop-color="#A08B7E"/>
<stop offset="1" stop-color="#7B6A60"/>
</linearGradient>
<linearGradient id="paint43_linear_524_2" x1="1135.08" y1="261.527" x2="1147.82" y2="380.192" gradientUnits="userSpaceOnUse">
<stop stop-color="#647573"/>
<stop offset="1" stop-color="#545454"/>
</linearGradient>
<linearGradient id="paint44_linear_524_2" x1="1278.69" y1="234.294" x2="1234.67" y2="234.294" gradientUnits="userSpaceOnUse">
<stop stop-color="#A08B7E"/>
<stop offset="1" stop-color="#726E6C"/>
</linearGradient>
<linearGradient id="paint45_linear_524_2" x1="1275.38" y1="180.633" x2="1271.28" y2="206.95" gradientUnits="userSpaceOnUse">
<stop stop-color="#A08B7E"/>
<stop offset="1" stop-color="#635750"/>
</linearGradient>
<linearGradient id="paint46_linear_524_2" x1="1267.27" y1="281.918" x2="1246.24" y2="281.918" gradientUnits="userSpaceOnUse">
<stop stop-color="#647573"/>
<stop offset="1" stop-color="#464B4B"/>
</linearGradient>
<linearGradient id="paint47_linear_524_2" x1="1386.59" y1="308.464" x2="1332.04" y2="308.464" gradientUnits="userSpaceOnUse">
<stop stop-color="#F7E2BB"/>
<stop offset="1" stop-color="#D2B795"/>
</linearGradient>
<linearGradient id="paint48_linear_524_2" x1="1375.68" y1="266.582" x2="1366.72" y2="297.319" gradientUnits="userSpaceOnUse">
<stop stop-color="#F7E2BB"/>
<stop offset="1" stop-color="#D2B795"/>
</linearGradient>
<linearGradient id="paint49_linear_524_2" x1="1568.45" y1="311.154" x2="1599.68" y2="548.787" gradientUnits="userSpaceOnUse">
<stop stop-color="#4B5DA5"/>
<stop offset="1" stop-color="#202853"/>
</linearGradient>
<linearGradient id="paint50_linear_524_2" x1="898.193" y1="440.561" x2="1016.66" y2="626.145" gradientUnits="userSpaceOnUse">
<stop stop-color="#3B3B64"/>
<stop offset="1" stop-color="#312E3C"/>
</linearGradient>
<linearGradient id="paint51_linear_524_2" x1="1133.36" y1="215.171" x2="1270.13" y2="429.321" gradientUnits="userSpaceOnUse">
<stop stop-color="#3B3B64"/>
<stop offset="1" stop-color="#312E3C"/>
</linearGradient>
<linearGradient id="paint52_linear_524_2" x1="1094.15" y1="321.674" x2="1166.8" y2="321.674" gradientUnits="userSpaceOnUse">
<stop stop-color="#F7E2BB"/>
<stop offset="1" stop-color="#D2B795"/>
</linearGradient>
<linearGradient id="paint53_linear_524_2" x1="1161.77" y1="272.846" x2="1174.72" y2="272.846" gradientUnits="userSpaceOnUse">
<stop stop-color="#F7E2BB"/>
<stop offset="1" stop-color="#D2B795"/>
</linearGradient>
<linearGradient id="paint54_linear_524_2" x1="1053.3" y1="233.335" x2="1161.02" y2="233.335" gradientUnits="userSpaceOnUse">
<stop stop-color="#F7E2BB"/>
<stop offset="1" stop-color="#D2B795"/>
</linearGradient>
<linearGradient id="paint55_linear_524_2" x1="1128.46" y1="372.39" x2="1167.3" y2="372.39" gradientUnits="userSpaceOnUse">
<stop stop-color="#F7E2BB"/>
<stop offset="1" stop-color="#D2B795"/>
</linearGradient>
<linearGradient id="paint56_linear_524_2" x1="1073.91" y1="393.266" x2="1086.36" y2="393.266" gradientUnits="userSpaceOnUse">
<stop stop-color="#92C9C2"/>
<stop offset="1" stop-color="#658781"/>
</linearGradient>
<linearGradient id="paint57_linear_524_2" x1="1161.52" y1="390.907" x2="1170.7" y2="390.907" gradientUnits="userSpaceOnUse">
<stop stop-color="#92C9C2"/>
<stop offset="1" stop-color="#658781"/>
</linearGradient>
<linearGradient id="paint58_linear_524_2" x1="1091.89" y1="383.005" x2="1160.26" y2="383.005" gradientUnits="userSpaceOnUse">
<stop stop-color="#92C9C2"/>
<stop offset="1" stop-color="#658781"/>
</linearGradient>
<clipPath id="clip0_524_2">
<rect width="276.003" height="324.014" fill="white" transform="translate(771.959 225.711)"/>
</clipPath>
<clipPath id="clip1_524_2">
<rect width="230.117" height="274.233" fill="white" transform="matrix(-1 0 0 1 1337.25 122.656)"/>
</clipPath>
<clipPath id="clip2_524_2">
<rect width="218.552" height="378.995" fill="white" transform="translate(1228.43 170.82)"/>
</clipPath>
</defs>
</svg>
