<svg width="493" height="1021" viewBox="0 0 493 1021" fill="none" xmlns="http://www.w3.org/2000/svg">
<g clip-path="url(#clip0_683_4)">
<path d="M475.007 0H17.9927C8.05561 0 0 8.04784 0 17.9754V1003.02C0 1012.95 8.05561 1021 17.9927 1021H475.007C484.944 1021 493 1012.95 493 1003.02V17.9754C493 8.04784 484.944 0 475.007 0Z" fill="#F61F4B"/>
<mask id="mask0_683_4" style="mask-type:alpha" maskUnits="userSpaceOnUse" x="0" y="0" width="493" height="1021">
<path d="M475.007 0H17.9927C8.05561 0 0 8.04784 0 17.9754V1003.02C0 1012.95 8.05561 1021 17.9927 1021H475.007C484.944 1021 493 1012.95 493 1003.02V17.9754C493 8.04784 484.944 0 475.007 0Z" fill="#F50234"/>
</mask>
<g mask="url(#mask0_683_4)">
<path fill-rule="evenodd" clip-rule="evenodd" d="M-62.4205 976.243C5.84198 1137.01 303.657 1231.34 381.373 1101.03C459.091 970.71 262.443 947.062 192.926 812.398C123.412 677.734 69.394 593.685 -31.0502 624.363C-131.493 655.043 -130.683 815.477 -62.4205 976.243Z" fill="#FFB86F"/>
<path fill-rule="evenodd" clip-rule="evenodd" d="M419.401 1080.59C528.579 1029.76 586.443 822.601 494.745 772.266C403.045 721.93 391.473 857.791 300.318 908.855C209.163 959.92 152.526 999.104 176.089 1067.47C199.652 1135.84 310.223 1131.42 419.401 1080.59Z" fill="#3BB273"/>
<path d="M297.428 843.218L316.513 823.794M376.877 853.076L354.375 834.197M337.471 878.979L325.042 905.578" stroke="white" stroke-width="5" stroke-linecap="round" stroke-linejoin="bevel"/>
<path d="M0.548651 983.056C67.127 983.056 121.1 929.135 121.1 862.621C121.1 796.107 67.127 742.186 0.548651 742.186C-66.0297 742.186 -120.002 796.107 -120.002 862.621C-120.002 929.135 -66.0297 983.056 0.548651 983.056Z" fill="#F1E9DA"/>
</g>
</g>
<defs>
<clipPath id="clip0_683_4">
<rect width="493" height="1021" fill="white"/>
</clipPath>
</defs>
</svg>
