<svg width="22" height="22" viewBox="0 0 22 22" fill="none" xmlns="http://www.w3.org/2000/svg">
<path d="M16.1248 3.63703C15.8754 3.63703 15.6315 3.711 15.4241 3.84961C15.2166 3.98821 15.0549 4.18522 14.9595 4.41571C14.864 4.6462 14.839 4.89982 14.8877 5.14451C14.9364 5.38919 15.0565 5.61395 15.2329 5.79036C15.4093 5.96677 15.6341 6.08691 15.8788 6.13558C16.1234 6.18425 16.3771 6.15927 16.6076 6.0638C16.8381 5.96833 17.0351 5.80665 17.1737 5.59922C17.3123 5.39178 17.3862 5.1479 17.3862 4.89842C17.3862 4.56388 17.2533 4.24304 17.0168 4.00648C16.7802 3.76992 16.4594 3.63703 16.1248 3.63703ZM20.9602 6.18084C20.9398 5.30869 20.7764 4.44579 20.4767 3.62651C20.2094 2.92553 19.7934 2.29078 19.2573 1.76595C18.7368 1.22716 18.1006 0.813786 17.3968 0.557117C16.5796 0.248244 15.7158 0.0811603 14.8424 0.0630697C13.7282 -5.87383e-08 13.3708 0 10.5116 0C7.65247 0 7.29507 -5.87383e-08 6.18084 0.0630697C5.30748 0.0811603 4.44363 0.248244 3.62651 0.557117C2.924 0.816384 2.28831 1.2294 1.76595 1.76595C1.22716 2.28647 0.813786 2.9227 0.557117 3.62651C0.248244 4.44363 0.0811603 5.30748 0.0630697 6.18084C-5.87383e-08 7.29507 0 7.65247 0 10.5116C0 13.3708 -5.87383e-08 13.7282 0.0630697 14.8424C0.0811603 15.7158 0.248244 16.5796 0.557117 17.3968C0.813786 18.1006 1.22716 18.7368 1.76595 19.2573C2.28831 19.7939 2.924 20.2069 3.62651 20.4661C4.44363 20.775 5.30748 20.9421 6.18084 20.9602C7.29507 21.0233 7.65247 21.0233 10.5116 21.0233C13.3708 21.0233 13.7282 21.0233 14.8424 20.9602C15.7158 20.9421 16.5796 20.775 17.3968 20.4661C18.1006 20.2095 18.7368 19.7961 19.2573 19.2573C19.7958 18.7344 20.2121 18.0991 20.4767 17.3968C20.7764 16.5775 20.9398 15.7146 20.9602 14.8424C20.9602 13.7282 21.0233 13.3708 21.0233 10.5116C21.0233 7.65247 21.0233 7.29507 20.9602 6.18084ZM19.0681 14.7163C19.0604 15.3835 18.9396 16.0446 18.7107 16.6715C18.5429 17.1289 18.2733 17.5423 17.9223 17.8803C17.5814 18.2277 17.1689 18.4967 16.7135 18.6687C16.0867 18.8976 15.4256 19.0184 14.7583 19.0261C13.7072 19.0786 13.3182 19.0891 10.5537 19.0891C7.78912 19.0891 7.40019 19.0891 6.34903 19.0261C5.6562 19.039 4.96632 18.9323 4.30977 18.7107C3.87436 18.53 3.48078 18.2616 3.15349 17.9223C2.8046 17.5846 2.53839 17.171 2.37563 16.7135C2.11899 16.0777 1.97665 15.4016 1.95516 14.7163C1.95516 13.6651 1.89209 13.2762 1.89209 10.5116C1.89209 7.74707 1.89209 7.35814 1.95516 6.30698C1.95988 5.62483 2.0844 4.94882 2.32307 4.30977C2.50813 3.86609 2.79217 3.47058 3.15349 3.15349C3.47285 2.79207 3.86753 2.50502 4.30977 2.31256C4.95051 2.08135 5.62582 1.9605 6.30698 1.95516C7.35814 1.95516 7.74707 1.89209 10.5116 1.89209C13.2762 1.89209 13.6651 1.89209 14.7163 1.95516C15.3835 1.96282 16.0446 2.08366 16.6715 2.31256C17.1491 2.48984 17.5779 2.77806 17.9223 3.15349C18.2668 3.47638 18.536 3.87115 18.7107 4.30977C18.9443 4.94986 19.0653 5.62559 19.0681 6.30698C19.1207 7.35814 19.1312 7.74707 19.1312 10.5116C19.1312 13.2762 19.1207 13.6651 19.0681 14.7163ZM10.5116 5.11917C9.44555 5.12124 8.40401 5.43927 7.51861 6.03307C6.63321 6.62686 5.94368 7.46977 5.53714 8.4553C5.13061 9.44082 5.02532 10.5247 5.23458 11.5701C5.44383 12.6154 5.95824 13.5753 6.71281 14.3284C7.46738 15.0815 8.42824 15.594 9.47399 15.8012C10.5197 16.0085 11.6034 15.9011 12.5882 15.4926C13.5729 15.0842 14.4145 14.393 15.0065 13.5064C15.5986 12.6199 15.9146 11.5777 15.9146 10.5116C15.916 9.80221 15.7771 9.09951 15.506 8.44395C15.2348 7.78839 14.8367 7.19291 14.3346 6.69176C13.8324 6.19061 13.2362 5.79367 12.5801 5.52379C11.924 5.2539 11.2211 5.11639 10.5116 5.11917ZM10.5116 14.012C9.81932 14.012 9.14256 13.8067 8.56693 13.4221C7.9913 13.0375 7.54264 12.4908 7.27771 11.8512C7.01277 11.2116 6.94346 10.5078 7.07852 9.82874C7.21358 9.14974 7.54696 8.52603 8.0365 8.0365C8.52603 7.54696 9.14974 7.21358 9.82874 7.07852C10.5078 6.94346 11.2116 7.01277 11.8512 7.27771C12.4908 7.54264 13.0375 7.9913 13.4221 8.56693C13.8067 9.14256 14.012 9.81932 14.012 10.5116C14.012 10.9713 13.9215 11.4265 13.7456 11.8512C13.5696 12.2759 13.3118 12.6617 12.9868 12.9868C12.6617 13.3118 12.2759 13.5696 11.8512 13.7456C11.4265 13.9215 10.9713 14.012 10.5116 14.012Z" fill="white"/>
</svg>
