<svg width="40" height="35" viewBox="0 0 40 35" fill="none" xmlns="http://www.w3.org/2000/svg">
<path id="Vector" d="M32.5142 33.5417C30.2449 33.5417 31.6799 33.8333 31.6799 32.0833C31.6799 30.6688 29.419 28.3938 28.9601 27.949C28.8819 27.8738 28.7866 27.8137 28.6803 27.7726C28.574 27.7315 28.459 27.7102 28.3428 27.7102C28.2265 27.7102 28.1115 27.7315 28.0052 27.7726C27.8989 27.8137 27.8036 27.8738 27.7254 27.949C27.2666 28.3938 25.0057 30.6688 25.0057 32.0833C25.0081 32.5974 25.1696 33.1013 25.4729 33.5417H22.8699C23.1732 33.1013 23.3346 32.5974 23.3371 32.0833C23.3371 30.6688 21.0762 28.3938 20.6174 27.949C20.5392 27.8738 20.4439 27.8137 20.3375 27.7726C20.2312 27.7315 20.1163 27.7102 20 27.7102C19.8837 27.7102 19.7688 27.7315 19.6625 27.7726C19.5561 27.8137 19.4608 27.8738 19.3826 27.949C18.9238 28.3938 16.6629 30.6688 16.6629 32.0833C16.6654 32.5974 16.8268 33.1013 17.1301 33.5417H14.5271C14.8304 33.1013 14.9919 32.5974 14.9943 32.0833C14.9943 30.6688 12.7334 28.3938 12.2746 27.949C12.1964 27.8738 12.1011 27.8137 11.9948 27.7726C11.8885 27.7315 11.7735 27.7102 11.6572 27.7102C11.541 27.7102 11.426 27.7315 11.3197 27.7726C11.2134 27.8137 11.1181 27.8738 11.0399 27.949C10.581 28.3938 8.32012 30.6688 8.32012 32.0833C8.32012 33.826 9.74673 33.5417 7.48584 33.5417C7.26458 33.5417 7.05238 33.6185 6.89592 33.7552C6.73946 33.892 6.65157 34.0774 6.65157 34.2708C6.65157 34.4642 6.73946 34.6497 6.89592 34.7864C7.05238 34.9232 7.26458 35 7.48584 35H32.5142C32.7354 35 32.9476 34.9232 33.1041 34.7864C33.2605 34.6497 33.3484 34.4642 33.3484 34.2708C33.3484 34.0774 33.2605 33.892 33.1041 33.7552C32.9476 33.6185 32.7354 33.5417 32.5142 33.5417ZM26.6742 32.0833C26.6742 31.6167 27.4584 30.5302 28.3428 29.5677C29.2271 30.5375 30.0113 31.6313 30.0113 32.0833C30.0113 32.4701 29.8355 32.841 29.5226 33.1145C29.2097 33.388 28.7853 33.5417 28.3428 33.5417C27.9002 33.5417 27.4758 33.388 27.1629 33.1145C26.85 32.841 26.6742 32.4701 26.6742 32.0833ZM18.3314 32.0833C18.3314 31.6167 19.1157 30.5302 20 29.5677C20.8843 30.5375 21.6686 31.6313 21.6686 32.0833C21.6686 32.4701 21.4928 32.841 21.1798 33.1145C20.8669 33.388 20.4425 33.5417 20 33.5417C19.5575 33.5417 19.1331 33.388 18.8202 33.1145C18.5072 32.841 18.3314 32.4701 18.3314 32.0833ZM9.98867 32.0833C9.98867 31.6167 10.7729 30.5302 11.6572 29.5677C12.5416 30.5375 13.3258 31.6313 13.3258 32.0833C13.3258 32.4701 13.15 32.841 12.8371 33.1145C12.5242 33.388 12.0998 33.5417 11.6572 33.5417C11.2147 33.5417 10.7903 33.388 10.4774 33.1145C10.1645 32.841 9.98867 32.4701 9.98867 32.0833ZM36.6105 10.2083H3.38954C2.62438 10.2144 1.88363 10.4445 1.28576 10.8619C0.68788 11.2793 0.2674 11.8599 0.091551 12.5108C-0.0842981 13.1616 -0.00535958 13.8453 0.315744 14.4523C0.636848 15.0594 1.18157 15.5548 1.86281 15.8594L4.98301 17.2229V19.6875C4.98301 21.428 5.77408 23.0972 7.1822 24.3279C8.59031 25.5586 10.5001 26.25 12.4915 26.25H27.5085C29.4999 26.25 31.4097 25.5586 32.8178 24.3279C34.2259 23.0972 35.017 21.428 35.017 19.6875V17.2229L38.1372 15.8594C38.8184 15.5548 39.3632 15.0594 39.6843 14.4523C40.0054 13.8453 40.0843 13.1616 39.9084 12.5108C39.7326 11.8599 39.3121 11.2793 38.7142 10.8619C38.1164 10.4445 37.3756 10.2144 36.6105 10.2083ZM2.61366 14.5833C2.24226 14.4399 1.93977 14.1877 1.75836 13.8702C1.57695 13.5528 1.52799 13.1899 1.61994 12.8442C1.71189 12.4986 1.93898 12.1918 2.26203 11.9768C2.58509 11.7619 2.98385 11.6522 3.38954 11.6667H4.98301V15.5896L2.61366 14.5833ZM33.3484 19.6875C33.3484 21.0412 32.7332 22.3395 31.638 23.2967C30.5428 24.2539 29.0573 24.7917 27.5085 24.7917H12.4915C10.9427 24.7917 9.45724 24.2539 8.36204 23.2967C7.26684 22.3395 6.65157 21.0412 6.65157 19.6875V11.6667H33.3484V19.6875ZM37.3863 14.5833L35.017 15.5896V11.6667H36.6105C37.0162 11.6522 37.4149 11.7619 37.738 11.9768C38.061 12.1918 38.2881 12.4986 38.3801 12.8442C38.472 13.1899 38.4231 13.5528 38.2416 13.8702C38.0602 14.1877 37.7577 14.4399 37.3863 14.5833ZM19.4661 6.24167C17.7558 7.48854 18.223 8.75 19.1657 8.75C19.387 8.75 19.5992 8.67318 19.7556 8.53643C19.9121 8.39969 20 8.21422 20 8.02083C20 7.35 21.6686 7.13854 21.6686 5.59271C21.6686 3.64583 18.8487 3.72604 20.5339 2.50104C22.2192 1.27604 21.7854 0 20.8343 0C20.613 0 20.4008 0.0768227 20.2444 0.213568C20.0879 0.350313 20 0.53578 20 0.729167C20 1.4 18.3314 1.61146 18.3314 3.15729C18.3314 4.70312 20 4.92188 20 5.59271C20 5.83333 19.8665 5.95 19.4661 6.24167ZM12.7918 6.24167C11.0816 7.48854 11.5488 8.75 12.4915 8.75C12.7128 8.75 12.925 8.67318 13.0814 8.53643C13.2379 8.39969 13.3258 8.21422 13.3258 8.02083C13.3258 7.35 14.9943 7.13854 14.9943 5.59271C14.9943 3.64583 12.1745 3.72604 13.8597 2.50104C15.545 1.27604 15.1111 0 14.1601 0C13.9388 0 13.7266 0.0768227 13.5701 0.213568C13.4137 0.350313 13.3258 0.53578 13.3258 0.729167C13.3258 1.4 11.6572 1.61146 11.6572 3.15729C11.6572 4.70312 13.3258 4.92188 13.3258 5.59271C13.3258 5.83333 13.1923 5.95 12.7918 6.24167ZM26.1403 6.24167C24.43 7.48854 24.8972 8.75 25.8399 8.75C26.0612 8.75 26.2734 8.67318 26.4299 8.53643C26.5863 8.39969 26.6742 8.21422 26.6742 8.02083C26.6742 7.35 28.3428 7.13854 28.3428 5.59271C28.3428 3.64583 25.5229 3.72604 27.2082 2.50104C28.8934 1.27604 28.4596 0 27.5085 0C27.2872 0 27.075 0.0768227 26.9186 0.213568C26.7621 0.350313 26.6742 0.53578 26.6742 0.729167C26.6742 1.4 25.0057 1.61146 25.0057 3.15729C25.0057 4.70312 26.6742 4.92188 26.6742 5.59271C26.6742 5.83333 26.5407 5.95 26.1403 6.24167Z" fill="#383838"/>
</svg>
