<svg width="37" height="35" viewBox="0 0 37 35" fill="none" xmlns="http://www.w3.org/2000/svg">
<g id="Car">
<path id="Vector" d="M9.50016 5.83336C9.71951 5.83447 9.93694 5.79768 10.14 5.72511C10.3431 5.65254 10.5278 5.5456 10.6835 5.41044L12.3502 3.95211C12.664 3.6775 12.8403 3.30505 12.8403 2.91669C12.8403 2.52834 12.664 2.15589 12.3502 1.88128C12.0363 1.60667 11.6107 1.45239 11.1668 1.45239C10.723 1.45239 10.2973 1.60667 9.9835 1.88128L8.31683 3.33961C8.16061 3.47518 8.03662 3.63647 7.95201 3.81419C7.8674 3.9919 7.82383 4.18251 7.82383 4.37503C7.82383 4.56754 7.8674 4.75816 7.95201 4.93587C8.03662 5.11358 8.16061 5.27487 8.31683 5.41044C8.47256 5.5456 8.65726 5.65254 8.86032 5.72511C9.06338 5.79768 9.28082 5.83447 9.50016 5.83336ZM16.1668 5.83336C16.3862 5.83447 16.6036 5.79768 16.8067 5.72511C17.0097 5.65254 17.1944 5.5456 17.3502 5.41044L19.0168 3.95211C19.3307 3.6775 19.507 3.30505 19.507 2.91669C19.507 2.52834 19.3307 2.15589 19.0168 1.88128C18.703 1.60667 18.2773 1.45239 17.8335 1.45239C17.3897 1.45239 16.964 1.60667 16.6502 1.88128L14.9835 3.33961C14.8273 3.47518 14.7033 3.63647 14.6187 3.81419C14.5341 3.9919 14.4905 4.18251 14.4905 4.37503C14.4905 4.56754 14.5341 4.75816 14.6187 4.93587C14.7033 5.11358 14.8273 5.27487 14.9835 5.41044C15.1392 5.5456 15.3239 5.65254 15.527 5.72511C15.73 5.79768 15.9475 5.83447 16.1668 5.83336ZM22.8335 5.83336C23.0528 5.83447 23.2703 5.79768 23.4733 5.72511C23.6764 5.65254 23.8611 5.5456 24.0168 5.41044L25.6835 3.95211C25.8389 3.81614 25.9622 3.65471 26.0463 3.47706C26.1304 3.2994 26.1736 3.10899 26.1736 2.91669C26.1736 2.7244 26.1304 2.53399 26.0463 2.35633C25.9622 2.17867 25.8389 2.01725 25.6835 1.88128C25.5281 1.7453 25.3436 1.63744 25.1406 1.56386C24.9375 1.49027 24.7199 1.45239 24.5002 1.45239C24.2804 1.45239 24.0628 1.49027 23.8597 1.56386C23.6567 1.63744 23.4722 1.7453 23.3168 1.88128L21.6502 3.33961C21.4939 3.47518 21.37 3.63647 21.2853 3.81419C21.2007 3.9919 21.1572 4.18251 21.1572 4.37503C21.1572 4.56754 21.2007 4.75816 21.2853 4.93587C21.37 5.11358 21.4939 5.27487 21.6502 5.41044C21.8059 5.5456 21.9906 5.65254 22.1937 5.72511C22.3967 5.79768 22.6142 5.83447 22.8335 5.83336ZM26.8668 22.7792C26.8303 22.6863 26.7799 22.598 26.7168 22.5167L26.5168 22.2979L26.2668 22.1229C26.1739 22.0677 26.073 22.0236 25.9668 21.9917C25.8676 21.9473 25.7606 21.9177 25.6502 21.9042C25.3824 21.8573 25.1056 21.8687 24.844 21.9373C24.5825 22.006 24.3442 22.1298 24.1502 22.2979C24.0785 22.3672 24.0117 22.4403 23.9502 22.5167C23.8871 22.598 23.8366 22.6863 23.8002 22.7792C23.7521 22.8619 23.7184 22.9503 23.7002 23.0417C23.692 23.1388 23.692 23.2363 23.7002 23.3334C23.702 23.7159 23.8756 24.0826 24.1835 24.3542C24.3376 24.4952 24.5254 24.6048 24.7335 24.675C24.9235 24.7461 25.127 24.7857 25.3335 24.7917C25.7755 24.7917 26.1994 24.638 26.512 24.3646C26.8246 24.0911 27.0002 23.7201 27.0002 23.3334C27.0083 23.2363 27.0083 23.1388 27.0002 23.0417C26.9715 22.9487 26.9265 22.8601 26.8668 22.7792ZM29.9335 16.2021L27.6668 10.2813C27.3211 9.42557 26.6797 8.68513 25.8317 8.16255C24.9836 7.63997 23.9708 7.36111 22.9335 7.36461H11.0668C10.0296 7.36111 9.01674 7.63997 8.16866 8.16255C7.32058 8.68513 6.67924 9.42557 6.3335 10.2813L4.06683 16.2021C3.00071 16.4464 2.05669 16.992 1.38155 17.7542C0.706401 18.5164 0.337957 19.4524 0.333496 20.4167V26.25C0.336395 27.1527 0.658294 28.0324 1.25506 28.7687C1.85183 29.5049 2.69425 30.0617 3.66683 30.3625V32.0834C3.66683 32.4701 3.84242 32.8411 4.15498 33.1146C4.46755 33.388 4.89147 33.5417 5.3335 33.5417C5.77552 33.5417 6.19945 33.388 6.51201 33.1146C6.82457 32.8411 7.00016 32.4701 7.00016 32.0834V30.625H27.0002V32.0834C27.0002 32.4701 27.1758 32.8411 27.4883 33.1146C27.8009 33.388 28.2248 33.5417 28.6668 33.5417C29.1089 33.5417 29.5328 33.388 29.8453 33.1146C30.1579 32.8411 30.3335 32.4701 30.3335 32.0834V30.3625C31.3061 30.0617 32.1485 29.5049 32.7453 28.7687C33.342 28.0324 33.6639 27.1527 33.6668 26.25V20.4167C33.6624 19.4524 33.2939 18.5164 32.6188 17.7542C31.9436 16.992 30.9996 16.4464 29.9335 16.2021ZM9.4835 11.2C9.5953 10.9104 9.80833 10.6588 10.0924 10.4808C10.3766 10.3029 10.7174 10.2076 11.0668 10.2084H22.9335C23.2969 10.1918 23.6566 10.2797 23.9576 10.4588C24.2585 10.6378 24.4842 10.8982 24.6002 11.2L26.3502 16.0417H7.65016L9.4835 11.2ZM30.3335 26.25C30.3335 26.6368 30.1579 27.0077 29.8453 27.2812C29.5328 27.5547 29.1089 27.7084 28.6668 27.7084H5.3335C4.89147 27.7084 4.46755 27.5547 4.15498 27.2812C3.84242 27.0077 3.66683 26.6368 3.66683 26.25V20.4167C3.66683 20.0299 3.84242 19.659 4.15498 19.3855C4.46755 19.112 4.89147 18.9584 5.3335 18.9584H28.6668C29.1089 18.9584 29.5328 19.112 29.8453 19.3855C30.1579 19.659 30.3335 20.0299 30.3335 20.4167V26.25ZM18.6668 21.875H15.3335C14.8915 21.875 14.4675 22.0287 14.155 22.3022C13.8424 22.5757 13.6668 22.9466 13.6668 23.3334C13.6668 23.7201 13.8424 24.0911 14.155 24.3646C14.4675 24.638 14.8915 24.7917 15.3335 24.7917H18.6668C19.1089 24.7917 19.5328 24.638 19.8453 24.3646C20.1579 24.0911 20.3335 23.7201 20.3335 23.3334C20.3335 22.9466 20.1579 22.5757 19.8453 22.3022C19.5328 22.0287 19.1089 21.875 18.6668 21.875ZM10.2002 22.7792C10.1637 22.6863 10.1132 22.598 10.0502 22.5167L9.85016 22.2979C9.61579 22.0956 9.31817 21.9585 8.99485 21.904C8.67154 21.8495 8.33701 21.88 8.0335 21.9917C7.82891 22.0611 7.642 22.1652 7.4835 22.2979C7.41182 22.3672 7.34503 22.4403 7.2835 22.5167C7.22042 22.598 7.16998 22.6863 7.1335 22.7792C7.07384 22.8601 7.02886 22.9487 7.00016 23.0417C6.99198 23.1388 6.99198 23.2363 7.00016 23.3334C7.00154 23.6218 7.10064 23.9034 7.28491 24.1425C7.46918 24.3816 7.73035 24.5676 8.03541 24.6769C8.34046 24.7861 8.6757 24.8138 8.99872 24.7564C9.32174 24.6989 9.61804 24.559 9.85016 24.3542C10.1581 24.0826 10.3317 23.7159 10.3335 23.3334C10.3417 23.2363 10.3417 23.1388 10.3335 23.0417C10.3048 22.9487 10.2598 22.8601 10.2002 22.7792Z" fill="#383838"/>
</g>
</svg>
