<svg width="20" height="21" viewBox="0 0 20 21" fill="none" xmlns="http://www.w3.org/2000/svg">
<path d="M18.1725 8.86535H5.76058L11.1571 3.4919C11.465 3.18434 11.638 2.76722 11.638 2.33227C11.638 1.89733 11.465 1.4802 11.1571 1.17265C10.8491 0.865102 10.4315 0.692322 9.996 0.692322C9.56052 0.692322 9.14287 0.865102 8.83494 1.17265L0.658464 9.339C0.509586 9.49433 0.392883 9.67749 0.315052 9.87798C0.151493 10.2756 0.151493 10.7216 0.315052 11.1193C0.392883 11.3197 0.509586 11.5029 0.658464 11.6582L8.83494 19.8246C8.98696 19.9777 9.16783 20.0992 9.3671 20.1821C9.56638 20.265 9.78012 20.3077 9.996 20.3077C10.2119 20.3077 10.4256 20.265 10.6249 20.1821C10.8242 20.0992 11.005 19.9777 11.1571 19.8246C11.3103 19.6728 11.432 19.4921 11.515 19.2931C11.598 19.0941 11.6408 18.8806 11.6408 18.665C11.6408 18.4494 11.598 18.2359 11.515 18.0368C11.432 17.8378 11.3103 17.6572 11.1571 17.5053L5.76058 12.1319H18.1725C18.6062 12.1319 19.0221 11.9598 19.3288 11.6535C19.6355 11.3472 19.8078 10.9318 19.8078 10.4986C19.8078 10.0655 19.6355 9.65002 19.3288 9.34373C19.0221 9.03743 18.6062 8.86535 18.1725 8.86535Z" fill="white"/>
</svg>
