<svg width="40" height="35" viewBox="0 0 40 35" fill="none" xmlns="http://www.w3.org/2000/svg">
<path id="Vector" d="M19.9984 23.3377C18.9102 23.3377 17.8465 23.6797 16.9416 24.3205C16.0368 24.9612 15.3316 25.8719 14.9152 26.9374C14.4987 28.0029 14.3898 29.1753 14.6021 30.3065C14.8144 31.4376 15.3384 32.4766 16.1079 33.2921C16.8773 34.1076 17.8577 34.663 18.925 34.888C19.9923 35.1129 21.0986 34.9975 22.104 34.5561C23.1094 34.1148 23.9687 33.3674 24.5733 32.4085C25.1778 31.4495 25.5005 30.3222 25.5005 29.1689C25.5005 27.6224 24.9208 26.1392 23.889 25.0456C22.8572 23.9521 21.4577 23.3377 19.9984 23.3377ZM19.9984 31.1126C19.6357 31.1126 19.2811 30.9986 18.9795 30.785C18.6779 30.5714 18.4428 30.2679 18.304 29.9127C18.1652 29.5575 18.1289 29.1667 18.1996 28.7897C18.2704 28.4126 18.4451 28.0663 18.7016 27.7945C18.9581 27.5226 19.2849 27.3375 19.6406 27.2625C19.9964 27.1875 20.3652 27.226 20.7003 27.3731C21.0354 27.5202 21.3218 27.7694 21.5234 28.089C21.7249 28.4086 21.8325 28.7844 21.8325 29.1689C21.8325 29.6844 21.6392 30.1788 21.2953 30.5433C20.9513 30.9078 20.4849 31.1126 19.9984 31.1126ZM19.9984 15.5629C16.5958 15.5753 13.3346 17.0067 10.92 19.5475C10.5784 19.9117 10.3867 20.4043 10.3867 20.9178C10.3867 21.4313 10.5784 21.924 10.92 22.2881C11.2636 22.6502 11.7285 22.8533 12.213 22.8533C12.6975 22.8533 13.1623 22.6502 13.506 22.2881C14.3578 21.3831 15.3697 20.665 16.4838 20.1751C17.5979 19.6851 18.7922 19.4329 19.9984 19.4329C21.2046 19.4329 22.399 19.6851 23.5131 20.1751C24.6271 20.665 25.6391 21.3831 26.4909 22.2881C26.8295 22.6544 27.291 22.8639 27.7747 22.8712C28.1468 22.8939 28.5167 22.7959 28.8349 22.5903C29.1531 22.3847 29.4047 22.0811 29.5561 21.7202C29.7075 21.3592 29.7515 20.9579 29.6822 20.5697C29.613 20.1816 29.4338 19.825 29.1686 19.5475C27.9618 18.2777 26.5309 17.2722 24.9575 16.5885C23.3841 15.9049 21.699 15.5563 19.9984 15.5629ZM19.9984 7.78805C14.6504 7.80312 9.52351 10.0519 5.72968 14.0468C5.55868 14.228 5.42303 14.4432 5.33048 14.68C5.23794 14.9168 5.19031 15.1705 5.19031 15.4268C5.19031 15.9444 5.38432 16.4409 5.72968 16.8069C6.07503 17.1729 6.54344 17.3785 7.03184 17.3785C7.52025 17.3785 7.98865 17.1729 8.334 16.8069C11.4289 13.5309 15.6243 11.6909 19.9984 11.6909C24.3726 11.6909 28.5679 13.5309 31.6629 16.8069C31.8342 16.987 32.0375 17.1295 32.2609 17.2263C32.4844 17.323 32.7237 17.372 32.965 17.3705C33.2064 17.372 33.4457 17.323 33.6691 17.2263C33.8926 17.1295 34.0958 16.987 34.2672 16.8069C34.4391 16.6262 34.5755 16.4112 34.6686 16.1743C34.7618 15.9375 34.8097 15.6834 34.8097 15.4268C34.8097 15.1702 34.7618 14.9162 34.6686 14.6793C34.5755 14.4425 34.4391 14.2275 34.2672 14.0468C30.4734 10.0519 25.3465 7.80312 19.9984 7.78805ZM39.4575 8.5461C36.9027 5.83677 33.8692 3.68751 30.5303 2.22113C27.1914 0.754752 23.6126 0 19.9984 0C16.3842 0 12.8054 0.754752 9.46657 2.22113C6.1277 3.68751 3.09418 5.83677 0.539373 8.5461C0.194018 8.91211 0 9.40852 0 9.92614C0 10.4437 0.194018 10.9402 0.539373 11.3062C0.884728 11.6722 1.35313 11.8778 1.84153 11.8778C2.32994 11.8778 2.79834 11.6722 3.1437 11.3062C7.61466 6.5703 13.6772 3.90992 19.9984 3.90992C26.3197 3.90992 32.3822 6.5703 36.8532 11.3062C37.0237 11.4884 37.2265 11.633 37.45 11.7316C37.6735 11.8303 37.9132 11.8811 38.1553 11.8811C38.3974 11.8811 38.6372 11.8303 38.8607 11.7316C39.0842 11.633 39.287 11.4884 39.4575 11.3062C39.6294 11.1255 39.7658 10.9105 39.859 10.6736C39.9521 10.4368 40 10.1827 40 9.92614C40 9.66954 39.9521 9.41549 39.859 9.17863C39.7658 8.94177 39.6294 8.72679 39.4575 8.5461Z" fill="#383838"/>
</svg>
