<svg width="27" height="23" viewBox="0 0 27 23" fill="none" xmlns="http://www.w3.org/2000/svg">
<path d="M26.0346 2.68772C25.0856 3.1462 24.0819 3.4509 23.0545 3.59244C24.1372 2.88094 24.9467 1.7543 25.3298 0.425929C24.3159 1.09196 23.2067 1.56098 22.0501 1.8127C21.341 0.973963 20.4205 0.390856 19.4083 0.139134C18.3961 -0.112588 17.3389 -0.0212889 16.3741 0.40117C15.4094 0.823628 14.5816 1.55772 13.9984 2.50807C13.4151 3.45841 13.1034 4.58109 13.1037 5.73023C13.1037 6.18434 13.1384 6.62098 13.2235 7.03666C11.166 6.92492 9.15292 6.3334 7.31592 5.30078C5.47892 4.26816 3.85937 2.8177 2.56313 1.04421C1.89904 2.30498 1.69373 3.79873 1.98902 5.22129C2.2843 6.64385 3.05797 7.88826 4.15249 8.70113C3.33378 8.67681 2.53235 8.4348 1.81576 7.99552V8.05839C1.81713 9.38129 2.22991 10.6633 2.98463 11.6885C3.73934 12.7138 4.78989 13.4198 5.95944 13.6876C5.51699 13.8167 5.06099 13.8802 4.60344 13.8762C4.27483 13.8827 3.94655 13.8499 3.62428 13.7784C3.95846 14.9154 4.60264 15.9098 5.46812 16.6245C6.3336 17.3392 7.37782 17.7392 8.45701 17.7693C6.62631 19.3552 4.36847 20.2155 2.04439 20.2127C1.62024 20.2127 1.21344 20.1917 0.806641 20.1341C3.17157 21.8222 5.9274 22.7152 8.74082 22.705C18.2581 22.705 23.4613 13.9722 23.4613 6.40265C23.4613 6.1494 23.4534 5.90489 23.4424 5.66211C24.4625 4.85343 25.3409 3.84548 26.0346 2.68772Z" fill="#626262"/>
</svg>
