<svg width="45" height="30" viewBox="0 0 45 30" fill="none" xmlns="http://www.w3.org/2000/svg">
<path id="Vector" d="M38.4375 16.875C37.8812 16.875 37.3375 17.0399 36.875 17.349C36.4124 17.658 36.052 18.0973 35.8391 18.6112C35.6262 19.1251 35.5705 19.6906 35.679 20.2362C35.7876 20.7818 36.0554 21.2829 36.4488 21.6762C36.8421 22.0696 37.3432 22.3374 37.8888 22.446C38.4344 22.5545 38.9999 22.4988 39.5138 22.2859C40.0277 22.073 40.467 21.7126 40.776 21.25C41.085 20.7875 41.25 20.2438 41.25 19.6875C41.25 18.9416 40.9537 18.2262 40.4262 17.6988C39.8988 17.1713 39.1834 16.875 38.4375 16.875ZM38.4375 20.625C38.2521 20.625 38.0708 20.57 37.9167 20.467C37.7625 20.364 37.6423 20.2176 37.5714 20.0463C37.5004 19.875 37.4818 19.6865 37.518 19.5046C37.5542 19.3227 37.6435 19.1557 37.7746 19.0246C37.9057 18.8935 38.0727 18.8042 38.2546 18.768C38.4365 18.7318 38.625 18.7504 38.7963 18.8214C38.9676 18.8923 39.114 19.0125 39.217 19.1667C39.32 19.3208 39.375 19.5021 39.375 19.6875C39.375 19.9361 39.2762 20.1746 39.1004 20.3504C38.9246 20.5262 38.6861 20.625 38.4375 20.625ZM40.3125 0H4.6875C3.4443 0 2.25201 0.49386 1.37294 1.37294C0.49386 2.25201 9.7714e-08 3.4443 9.7714e-08 4.6875V21.5625C-0.000220454 22.6431 0.372922 23.6906 1.05628 24.5277C1.73963 25.3648 2.69122 25.9401 3.75 26.1563V27.1875C3.75 27.9334 4.04632 28.6488 4.57376 29.1762C5.10121 29.7037 5.81658 30 6.5625 30C7.30842 30 8.02379 29.7037 8.55124 29.1762C9.07868 28.6488 9.375 27.9334 9.375 27.1875V26.25H35.625V27.1875C35.625 27.9334 35.9213 28.6488 36.4488 29.1762C36.9762 29.7037 37.6916 30 38.4375 30C39.1834 30 39.8988 29.7037 40.4262 29.1762C40.9537 28.6488 41.25 27.9334 41.25 27.1875V26.1563C42.3088 25.9401 43.2604 25.3648 43.9437 24.5277C44.6271 23.6906 45.0002 22.6431 45 21.5625V4.6875C45 4.07193 44.8788 3.46239 44.6432 2.89367C44.4076 2.32496 44.0623 1.80821 43.6271 1.37294C43.1918 0.937662 42.675 0.592383 42.1063 0.356814C41.5376 0.121245 40.9281 0 40.3125 0ZM7.5 27.1875C7.5 27.4361 7.40123 27.6746 7.22541 27.8504C7.0496 28.0262 6.81114 28.125 6.5625 28.125C6.31386 28.125 6.0754 28.0262 5.89959 27.8504C5.72377 27.6746 5.625 27.4361 5.625 27.1875V26.25H7.5V27.1875ZM31.875 24.375H4.6875C4.10724 24.3734 3.54169 24.1923 3.06838 23.8566C2.59507 23.5209 2.23717 23.0471 2.04375 22.5H31.875V24.375ZM31.875 20.625H1.875V5.625H31.875V20.625ZM31.875 3.75H2.04375C2.23717 3.20292 2.59507 2.72906 3.06838 2.39338C3.54169 2.0577 4.10724 1.87663 4.6875 1.875H31.875V3.75ZM39.375 27.1875C39.375 27.4361 39.2762 27.6746 39.1004 27.8504C38.9246 28.0262 38.6861 28.125 38.4375 28.125C38.1889 28.125 37.9504 28.0262 37.7746 27.8504C37.5988 27.6746 37.5 27.4361 37.5 27.1875V26.25H39.375V27.1875ZM43.125 21.5625C43.125 22.3084 42.8287 23.0238 42.3012 23.5512C41.7738 24.0787 41.0584 24.375 40.3125 24.375H33.75V1.875H40.3125C41.0584 1.875 41.7738 2.17132 42.3012 2.69876C42.8287 3.22621 43.125 3.94158 43.125 4.6875V21.5625ZM28.4438 17.8125C28.6924 17.8125 28.9308 17.7137 29.1067 17.5379C29.2825 17.3621 29.3813 17.1236 29.3813 16.875V9.375C29.3813 9.12636 29.2825 8.8879 29.1067 8.71209C28.9308 8.53627 28.6924 8.4375 28.4438 8.4375C28.1951 8.4375 27.9567 8.53627 27.7808 8.71209C27.605 8.8879 27.5063 9.12636 27.5063 9.375V16.875C27.5063 17.1236 27.605 17.3621 27.7808 17.5379C27.9567 17.7137 28.1951 17.8125 28.4438 17.8125ZM40.3125 11.25H36.5625C36.3139 11.25 36.0754 11.3488 35.8996 11.5246C35.7238 11.7004 35.625 11.9389 35.625 12.1875C35.625 12.4361 35.7238 12.6746 35.8996 12.8504C36.0754 13.0262 36.3139 13.125 36.5625 13.125H40.3125C40.5611 13.125 40.7996 13.0262 40.9754 12.8504C41.1512 12.6746 41.25 12.4361 41.25 12.1875C41.25 11.9389 41.1512 11.7004 40.9754 11.5246C40.7996 11.3488 40.5611 11.25 40.3125 11.25ZM40.3125 3.75H36.5625C36.3139 3.75 36.0754 3.84877 35.8996 4.02459C35.7238 4.2004 35.625 4.43886 35.625 4.6875C35.625 4.93614 35.7238 5.1746 35.8996 5.35041C36.0754 5.52623 36.3139 5.625 36.5625 5.625H40.3125C40.5611 5.625 40.7996 5.52623 40.9754 5.35041C41.1512 5.1746 41.25 4.93614 41.25 4.6875C41.25 4.43886 41.1512 4.2004 40.9754 4.02459C40.7996 3.84877 40.5611 3.75 40.3125 3.75ZM40.3125 7.5H36.5625C36.3139 7.5 36.0754 7.59877 35.8996 7.77459C35.7238 7.9504 35.625 8.18886 35.625 8.4375C35.625 8.68614 35.7238 8.9246 35.8996 9.10041C36.0754 9.27623 36.3139 9.375 36.5625 9.375H40.3125C40.5611 9.375 40.7996 9.27623 40.9754 9.10041C41.1512 8.9246 41.25 8.68614 41.25 8.4375C41.25 8.18886 41.1512 7.9504 40.9754 7.77459C40.7996 7.59877 40.5611 7.5 40.3125 7.5Z" fill="#383838"/>
</svg>
