<svg width="211" height="59" viewBox="0 0 211 59" fill="none" xmlns="http://www.w3.org/2000/svg">
<g id="Frame" clip-path="url(#clip0_45_236)">
<path id="Vector" d="M0 1.41553C11.7222 1.41553 11.7223 14.1355 23.4445 14.1355C35.1667 14.1355 35.1666 1.41553 46.8888 1.41553C58.6111 1.41553 58.6111 14.1355 70.3333 14.1355C82.0555 14.1355 82.0556 1.41553 93.7778 1.41553C105.5 1.41553 105.5 14.1355 117.222 14.1355C128.944 14.1355 128.944 1.41553 140.667 1.41553C152.389 1.41553 152.389 14.1355 164.111 14.1355C175.833 14.1355 175.833 1.41553 187.555 1.41553C199.278 1.41553 199.278 14.1355 211 14.1355" stroke="#4FC646" stroke-width="2.49409" stroke-miterlimit="10"/>
<path id="Vector_2" d="M0 1.41553C11.7222 1.41553 11.7223 14.1355 23.4445 14.1355C35.1667 14.1355 35.1666 1.41553 46.8888 1.41553C58.6111 1.41553 58.6111 14.1355 70.3333 14.1355C82.0555 14.1355 82.0556 1.41553 93.7778 1.41553C105.5 1.41553 105.5 14.1355 117.222 14.1355C128.944 14.1355 128.944 1.41553 140.667 1.41553C152.389 1.41553 152.389 14.1355 164.111 14.1355C175.833 14.1355 175.833 1.41553 187.555 1.41553C199.278 1.41553 199.278 14.1355 211 14.1355" stroke="black" stroke-opacity="0.2" stroke-width="2.49409" stroke-miterlimit="10"/>
<path id="Vector_3" d="M0 22.8652C11.7222 22.8652 11.7223 35.585 23.4445 35.585C35.1667 35.585 35.1666 22.8652 46.8888 22.8652C58.6111 22.8652 58.6111 35.585 70.3333 35.585C82.0555 35.585 82.0556 22.8652 93.7778 22.8652C105.5 22.8652 105.5 35.585 117.222 35.585C128.944 35.585 128.944 22.8652 140.667 22.8652C152.389 22.8652 152.389 35.585 164.111 35.585C175.833 35.585 175.833 22.8652 187.555 22.8652C199.278 22.8652 199.278 35.585 211 35.585" stroke="#4FC646" stroke-width="2.49409" stroke-miterlimit="10"/>
<path id="Vector_4" d="M0 22.8652C11.7222 22.8652 11.7223 35.585 23.4445 35.585C35.1667 35.585 35.1666 22.8652 46.8888 22.8652C58.6111 22.8652 58.6111 35.585 70.3333 35.585C82.0555 35.585 82.0556 22.8652 93.7778 22.8652C105.5 22.8652 105.5 35.585 117.222 35.585C128.944 35.585 128.944 22.8652 140.667 22.8652C152.389 22.8652 152.389 35.585 164.111 35.585C175.833 35.585 175.833 22.8652 187.555 22.8652C199.278 22.8652 199.278 35.585 211 35.585" stroke="black" stroke-opacity="0.2" stroke-width="2.49409" stroke-miterlimit="10"/>
<path id="Vector_5" d="M0 44.0649C11.7222 44.0649 11.7223 56.7847 23.4445 56.7847C35.1667 56.7847 35.1666 44.0649 46.8888 44.0649C58.6111 44.0649 58.6111 56.7847 70.3333 56.7847C82.0555 56.7847 82.0556 44.0649 93.7778 44.0649C105.5 44.0649 105.5 56.7847 117.222 56.7847C128.944 56.7847 128.944 44.0649 140.667 44.0649C152.389 44.0649 152.389 56.7847 164.111 56.7847C175.833 56.7847 175.833 44.0649 187.555 44.0649C199.278 44.0649 199.278 56.7847 211 56.7847" stroke="#4FC646" stroke-width="2.49409" stroke-miterlimit="10"/>
<path id="Vector_6" d="M0 44.0649C11.7222 44.0649 11.7223 56.7847 23.4445 56.7847C35.1667 56.7847 35.1666 44.0649 46.8888 44.0649C58.6111 44.0649 58.6111 56.7847 70.3333 56.7847C82.0555 56.7847 82.0556 44.0649 93.7778 44.0649C105.5 44.0649 105.5 56.7847 117.222 56.7847C128.944 56.7847 128.944 44.0649 140.667 44.0649C152.389 44.0649 152.389 56.7847 164.111 56.7847C175.833 56.7847 175.833 44.0649 187.555 44.0649C199.278 44.0649 199.278 56.7847 211 56.7847" stroke="black" stroke-opacity="0.2" stroke-width="2.49409" stroke-miterlimit="10"/>
</g>
<defs>
<clipPath id="clip0_45_236">
<rect width="211" height="59" fill="white"/>
</clipPath>
</defs>
</svg>
